<svg width="196" height="583" viewBox="0 0 196 583" fill="none" xmlns="http://www.w3.org/2000/svg">
<path opacity="0.8" d="M97.7932 115.751C103.088 110.452 87.634 86.3926 63.2764 62.0137C38.9188 37.6347 14.881 22.1674 9.58654 27.4666C4.29204 32.7657 19.7457 56.8246 44.1033 81.2036C68.4609 105.583 92.4987 121.05 97.7932 115.751Z" fill="#009BDD"/>
<path opacity="0.8" d="M134.72 67.8609C150.887 37.4166 158.632 9.88548 152.021 6.36835C145.409 2.85123 126.943 24.68 110.777 55.1243C94.6104 85.5686 86.8647 113.1 93.4765 116.617C100.088 120.134 118.554 98.3052 134.72 67.8609Z" fill="#009BDD"/>
<path opacity="0.68" d="M146.28 582.996L88.5337 572.802L131.961 410.169L175.389 417.837L146.28 582.996Z" fill="#9EC043"/>
<path d="M145.245 425.924C143.702 423.109 141.385 422.069 138.25 422.852C137.823 422.96 137.356 422.914 136.909 422.943C135.312 423.982 133.5 424.264 131.659 424.467C129.545 425.593 126.959 424.686 124.903 426.057C124.022 426.372 123.083 426.926 122.313 426.467C122.185 426.388 122.061 426.285 121.945 426.148C122.061 426.289 122.185 426.392 122.313 426.467C123.083 426.926 124.022 426.372 124.903 426.057C124.142 425.046 123.376 424.036 122.615 423.026C124.642 422.235 126.666 421.444 128.693 420.653C129.648 420.28 130.608 419.928 131.572 420.641C133.012 419.523 134.737 419.059 136.421 418.5C142.999 416.43 143.5 412.454 140.786 407.444C138.729 403.643 136.636 399.85 134.336 396.189C132.317 392.98 128.399 392.831 126.103 395.804C125.081 397.129 124.258 398.541 122.47 398.914C122.446 399.688 122.197 400.376 121.622 400.914C118.821 403.543 115.992 406.14 113.323 409.995C114.167 405.125 116.141 401.813 118.991 398.964C118.991 396.732 120.58 395.221 121.577 393.473C123.91 389.378 122.611 386.409 118.201 385.229C113.303 383.916 108.218 383.974 103.328 382.773C101.681 382.368 100.411 383.088 99.2735 384.094C98.2765 384.976 97.3911 385.982 96.452 386.931C96.5968 389.912 96.7912 392.893 96.874 395.875C96.965 399.295 96.9857 402.715 96.965 406.14C96.9608 406.881 96.6051 407.622 95.7032 407.721C94.7475 407.825 94.4372 407.096 94.2924 406.367C94.0317 405.051 93.8539 403.717 93.6553 402.388C93.0347 398.26 92.8527 394.057 91.6157 390.032C90.6021 386.736 88.066 385.643 85.0748 387.341C83.6599 388.144 82.4229 389.258 81.1073 390.227C78.6912 391.37 76.6889 393.022 75.0795 395.154C73.3047 396.496 71.2527 397.394 69.5688 398.927C65.6303 402.5 65.7833 406.434 70.1604 409.456C70.4169 410.467 71.1906 410.893 72.1008 411.158C74.4176 412.914 77.0529 414.293 78.7616 416.773C79.5021 417.825 80.2385 418.881 80.9791 419.933C79.2539 421.854 77.6859 420.425 76.1883 419.622C72.7586 417.784 69.3909 415.825 65.9861 413.941C62.7301 412.136 59.6107 413.274 58.3075 416.777C57.8897 417.895 57.5835 419.067 57.3477 420.239C56.1521 426.102 55.002 431.978 53.8229 437.846C53.0616 441.639 56.1149 444.496 59.801 443.407C63.9713 442.173 68.1167 440.864 72.3035 439.697C73.6191 439.328 75.4808 438.14 76.2338 440.061C77.0281 442.09 74.7361 442.305 73.5405 442.906C69.122 445.133 64.6043 447.162 60.1899 449.402C57.0416 450.997 55.6515 455.328 57.4511 458.119C60.6161 463.03 64.0458 467.767 67.1817 472.694C68.5015 474.765 70.0487 474.943 72.1546 474.396C74.3017 473.837 75.2409 472.239 76.2007 470.491C78.5092 466.297 80.7929 462.082 83.3414 458.036C84.0116 456.972 84.6984 454.603 86.4235 455.506C87.9708 456.318 86.7711 458.198 86.225 459.498C84.1481 464.45 82.1085 469.431 79.7876 474.268C78.9684 475.978 78.9436 477.344 79.7462 478.91C80.2923 479.978 80.7764 481.075 81.2894 482.164C88.3721 482.421 95.4549 482.674 102.534 482.926C103.142 482.073 103.634 481.104 104.379 480.4C105.599 479.245 105.947 477.999 105.624 476.363C104.532 470.781 104.404 465.05 103.018 459.51C102.91 459.075 102.798 458.632 102.778 458.189C102.736 457.357 103.1 456.773 103.953 456.562C104.701 456.376 105.082 456.868 105.322 457.407C105.748 458.359 106.125 459.34 106.435 460.338C107.813 464.769 109.07 469.241 110.539 473.643C111.768 477.315 115.135 478.135 118.205 475.713C119.376 474.79 120.638 473.982 121.858 473.121C125.416 468.98 129.781 465.713 133.769 462.04C133.815 461.055 133.86 460.065 133.91 459.079C133.281 456.852 132.027 455.274 129.917 454.09C127.137 452.529 124.39 450.81 122.139 448.463C120.882 447.663 119.595 446.901 118.379 446.044C117.746 445.597 117.374 444.947 117.887 444.127C118.325 443.427 118.962 442.972 119.748 443.27C121.556 443.957 123.397 444.636 124.779 446.098C128.105 446.487 130.794 448.458 133.769 449.725C137.488 451.316 140.43 450.032 141.663 446.177C142.023 445.055 142.329 443.916 142.66 442.786C142.482 440.959 142.734 439.233 143.818 437.692C143.446 436.206 143.669 434.773 144.157 433.349C144.981 430.947 145.316 428.467 145.254 425.933L145.245 425.924ZM81.4673 417.808C81.5707 417.941 81.6327 418.086 81.6534 418.243C81.6327 418.082 81.5748 417.937 81.4673 417.808ZM121.436 423.705C121.502 423.601 121.589 423.51 121.693 423.423C121.585 423.51 121.498 423.606 121.436 423.705Z" fill="#D2B53F"/>
<path d="M104.044 162.774C111.073 156.667 119.223 158.493 126.521 160.944C139.031 165.143 151.55 169.288 164.14 173.242C166.018 173.83 167.826 174.646 169.642 175.416C171.305 176.124 172.695 177.271 172.282 179.225C171.827 181.37 169.973 181.317 168.223 181.13C162.646 180.542 157.073 179.958 151.497 179.379C150.334 178.695 148.89 178.165 148.609 179.942C148.481 180.766 150.148 180.737 151.124 180.6C155.824 184.927 162.108 184.517 167.722 185.95C174.189 187.598 179.993 190.041 184.796 194.844C187.39 197.437 188.057 199.408 185.818 202.853C181.826 208.998 178.343 215.511 175.066 222.078C173.374 225.47 171.678 225.42 168.389 224.401C159.039 221.507 154.388 213.209 147.732 207.258C144.468 204.339 141.985 200.542 137.55 197.809C136.748 201.441 138.357 203.408 139.826 205.279C142.796 209.068 145.858 212.791 149.006 216.434C152.088 219.995 155.241 223.292 150.657 228.074C148.65 230.169 150.4 232.265 151.807 234.099C154.628 237.78 154.111 241.205 151.612 245.006C147.268 251.61 143.317 258.476 139.263 265.267C138.394 266.724 137.546 268.496 139.449 269.734C140.839 270.637 142.225 269.643 143.264 268.712C148.758 263.78 153.598 258.219 158.195 252.467C165.071 243.867 172.05 243.846 177.25 253.354C183.626 265.01 189.351 277.039 194.995 289.076C197.411 294.231 191.47 301.979 185.5 302.02C176.737 302.078 167.971 302.016 159.204 302.095C157.541 302.111 155.865 302.48 154.227 302.819C153.325 303.006 152.924 303.801 152.87 304.703C152.812 305.689 153.449 306.347 154.223 306.645C155.261 307.043 156.403 307.184 157.5 307.424C166.357 309.333 175.231 311.109 184.242 312.165C192.148 313.092 197.013 322.061 193.34 329.324C187.862 340.144 182.132 350.831 176.344 361.49C173.233 367.221 165.993 368.206 161.455 363.2C156.138 357.332 151.393 350.947 146.445 344.749C143.719 341.337 141.05 337.883 136.731 334.898C135.49 338.852 137.269 341.221 138.696 343.411C143.963 351.494 148.423 359.995 152.552 368.699C156.043 376.053 152.494 382.873 144.414 384.069C134.336 385.564 124.274 387.187 114.175 388.496C106.84 389.448 101.615 384.777 102.025 377.386C102.496 368.918 103.572 360.488 104.399 352.041C104.453 351.482 104.635 350.931 104.747 350.376C105.252 347.825 105.843 344.314 103.051 343.709C99.3976 342.918 100.167 346.898 99.5341 349.138C97.8503 355.134 95.5956 361.038 94.6357 367.146C93.3987 375.022 90.391 380.479 81.6989 381.043C69.5523 373.606 59.4245 363.527 47.8861 355.295C46.0988 347.896 48.2212 342.479 55.3453 338.935C58.2537 337.486 60.5374 334.786 63.1066 332.653C67.0865 330.968 69.7467 327.432 73.4039 325.287C75.1953 324.235 75.4973 322.682 74.5127 320.981C73.375 319.022 71.5009 319.403 70.1108 320.359C66.8879 322.575 62.7425 323.333 60.2313 326.645C55.5729 328.691 50.5338 330.169 46.3677 332.952C42.7643 335.362 40.0834 334.48 37.0054 332.865C33.8529 331.212 31.8339 328.562 30.6218 325.258C31.6105 321.627 29.5378 318.72 28.3546 315.602C25.4503 307.498 25.1897 298.72 21.9834 290.691C25.3386 284.997 29.8233 282.041 36.6372 284.525C37.0964 284.691 37.7294 284.38 38.2837 284.293C39.409 285.73 40.9315 286.314 42.7064 286.463C50.0705 287.076 57.5918 286.326 64.8483 289.018C57.2484 284.997 49.454 281.718 41.5893 278.608C40.6916 278.252 39.4173 278.844 38.3168 278.997C36.7944 277.146 34.4652 276.703 32.4876 275.643C25.1194 271.681 23.7955 268.086 27.0183 260.629C29.8316 254.12 32.62 247.598 35.6277 241.18C38.503 235.039 45.1555 233.884 49.9753 238.546C55.0557 243.461 59.9458 248.579 65.1752 253.325C69.0144 256.807 73.2633 259.838 77.3425 263.08C78.927 260.815 78.1327 259.685 77.1398 258.637C74.612 255.97 72.0014 253.383 69.5316 250.666C64.6291 245.267 59.5321 240.012 55.0268 234.298C51.262 229.519 52.5279 224.708 57.5959 223.838C65.9116 222.41 73.9831 219.697 82.4974 219.254C88.7155 218.927 92.4803 220.53 94.5034 226.145C97.6559 234.898 102.447 243.105 103.51 252.575C103.68 254.07 104.3 255.383 106.046 255.378C108.135 255.378 109.029 253.871 109.215 252.078C109.327 251.002 109.132 249.751 108.652 248.786C106.1 243.627 105.847 237.867 104.23 232.476C103.03 228.484 102.67 224.699 105.562 221.254C107.188 219.321 108.094 216.873 106.075 215.171C102.5 212.161 103.258 207.996 102.281 204.29C102.149 200.633 104.416 196.584 100.589 193.482C96.3471 197.731 94.2234 201.802 94.2179 205.697C90.3538 207.536 86.5104 207.205 82.7166 205.515C73.1557 201.263 63.3341 197.548 54.4682 191.846C53.0533 190.936 51.2289 190.414 51.2206 188.331C51.1999 184.679 49.1065 185.292 46.6242 185.71C37.568 187.246 28.9586 183.913 21.3628 180.41C14.1228 177.068 7.69373 177.71 0.689547 178.501C0.689547 178.501 0.536473 178.439 0.54061 178.439C5.54241 174.215 10.7345 170.571 17.4946 169.428C20.9864 168.836 24.7925 169.474 27.9864 167.333C29.8605 166.555 31.7347 165.772 33.6088 164.989C46.3801 163.263 59.288 162.555 71.898 159.664C75.034 159.747 78.1368 159.557 81.1156 158.451C83.2503 159.197 85.4554 159.205 87.6605 158.94C89.7705 158.687 91.2681 159.433 92.7203 161.027C97.4407 166.194 97.5069 166.136 104.027 162.778L104.044 162.774ZM133.19 194.203C133.326 195.234 133.682 196.116 134.824 196.36C134.919 196.381 135.242 195.958 135.221 195.764C135.109 194.588 134.394 194.062 133.239 194.083C132.855 193.706 132.594 192.488 131.957 193.9C132.366 194 132.776 194.103 133.186 194.203H133.19Z" fill="#EDDF87"/>
</svg>
