<svg width="17" height="14" viewBox="0 0 17 14" fill="none" xmlns="http://www.w3.org/2000/svg">
<g id="Layer_1" clip-path="url(#clip0_1900_6921)">
<path id="Vector" d="M0.5 6.99411C0.5 6.7466 0.594465 6.53445 0.783395 6.35766L6.35683 0.794651C6.4631 0.688577 6.55756 0.61786 6.67565 0.570716C6.79373 0.523572 6.88819 0.5 7.00627 0.5C7.25424 0.5 7.45498 0.582502 7.6203 0.735721C7.78561 0.888939 7.86827 1.0893 7.86827 1.32502C7.86827 1.44288 7.84465 1.56074 7.79742 1.66682C7.75018 1.77289 7.69114 1.86718 7.60849 1.9379L5.4476 4.11831L2.51919 6.81732L2.21218 6.28694L5.08155 6.13373H15.638C15.8978 6.13373 16.1103 6.21623 16.2756 6.38123C16.441 6.54624 16.5236 6.7466 16.5236 7.00589C16.5236 7.26519 16.441 7.47734 16.2756 7.63055C16.1103 7.78377 15.8978 7.87806 15.638 7.87806H5.06974L2.20037 7.72484L2.50738 7.19447L5.43579 9.88169L7.59668 12.0621C7.67934 12.1328 7.73838 12.2271 7.78561 12.3332C7.83284 12.4393 7.85646 12.5571 7.85646 12.675C7.85646 12.9107 7.7738 13.1111 7.60849 13.2643C7.44317 13.4175 7.24243 13.5 6.99446 13.5C6.7583 13.5 6.55756 13.4175 6.38044 13.2407L0.783395 7.64234C0.594465 7.46555 0.5 7.2534 0.5 7.00589V6.99411Z" fill="black"/>
</g>
<defs>
<clipPath id="clip0_1900_6921">
<rect width="16" height="13" fill="white" transform="translate(0.5 0.5)"/>
</clipPath>
</defs>
</svg>
