<svg width="42" height="30" viewBox="0 0 42 30" fill="none" xmlns="http://www.w3.org/2000/svg">
<rect width="42" height="30" rx="15" fill="white"/>
<g clip-path="url(#clip0_854_8671)">
<path d="M13 14.4941C13 14.2466 13.0945 14.0345 13.2834 13.8577L18.8568 8.29465C18.9631 8.18858 19.0576 8.11786 19.1756 8.07072C19.2937 8.02357 19.3882 8 19.5063 8C19.7542 8 19.955 8.0825 20.1203 8.23572C20.2856 8.38894 20.3683 8.5893 20.3683 8.82502C20.3683 8.94288 20.3446 9.06074 20.2974 9.16682C20.2502 9.27289 20.1911 9.36718 20.1085 9.4379L17.9476 11.6183L15.0192 14.3173L14.7122 13.7869L17.5815 13.6337H28.138C28.3978 13.6337 28.6103 13.7162 28.7756 13.8812C28.941 14.0462 29.0236 14.2466 29.0236 14.5059C29.0236 14.7652 28.941 14.9773 28.7756 15.1306C28.6103 15.2838 28.3978 15.3781 28.138 15.3781H17.5697L14.7004 15.2248L15.0074 14.6945L17.9358 17.3817L20.0967 19.5621C20.1793 19.6328 20.2384 19.7271 20.2856 19.8332C20.3328 19.9393 20.3565 20.0571 20.3565 20.175C20.3565 20.4107 20.2738 20.6111 20.1085 20.7643C19.9432 20.9175 19.7424 21 19.4945 21C19.2583 21 19.0576 20.9175 18.8804 20.7407L13.2834 15.1423C13.0945 14.9655 13 14.7534 13 14.5059V14.4941Z" fill="black"/>
</g>
<defs>
<clipPath id="clip0_854_8671">
<rect width="16" height="13" fill="white" transform="translate(13 8)"/>
</clipPath>
</defs>
</svg>
