<svg width="42" height="30" viewBox="0 0 42 30" fill="none" xmlns="http://www.w3.org/2000/svg">
<rect width="42" height="30" rx="15" fill="white"/>
<path d="M15.2599 20.7208C15.1453 20.6115 15.0672 20.476 15.0255 20.3146C14.9891 20.1583 14.9917 20.0047 15.0333 19.8536C15.075 19.6974 15.1505 19.5646 15.2599 19.4552L19.7208 14.9865L15.2599 10.5255C15.1505 10.4161 15.075 10.2859 15.0333 10.1349C14.9969 9.97865 14.9969 9.8224 15.0333 9.66615C15.075 9.5099 15.1505 9.37448 15.2599 9.2599C15.3745 9.1401 15.5099 9.06198 15.6661 9.02552C15.8224 8.98906 15.976 8.99167 16.1271 9.03333C16.2833 9.06979 16.4187 9.14271 16.5333 9.25208L20.9943 13.7208L25.463 9.25208C25.6297 9.08542 25.838 9.00208 26.088 9.00208C26.338 9.00208 26.5516 9.08802 26.7286 9.2599C26.9057 9.43177 26.9917 9.64531 26.9865 9.90052C26.9865 10.1505 26.9031 10.3589 26.7365 10.5255L22.2677 14.9865L26.7365 19.4552C26.9031 19.6219 26.9865 19.8302 26.9865 20.0802C26.9865 20.3302 26.9005 20.5438 26.7286 20.7208C26.5516 20.8979 26.338 20.9839 26.088 20.9786C25.838 20.9786 25.6297 20.8953 25.463 20.7286L20.9943 16.2599L16.5333 20.7286C16.4187 20.838 16.2833 20.9109 16.1271 20.9474C15.976 20.9891 15.8224 20.9891 15.6661 20.9474C15.5099 20.9109 15.3745 20.8354 15.2599 20.7208Z" fill="black"/>
</svg>
