<svg width="42" height="30" viewBox="0 0 42 30" fill="none" xmlns="http://www.w3.org/2000/svg">
<rect width="42" height="30" rx="15" fill="white"/>
<path d="M16.6875 20.3359C16.4531 20.3359 16.2552 20.2526 16.0938 20.0859C15.9323 19.9193 15.8516 19.7214 15.8516 19.4922C15.8516 19.263 15.9323 19.0651 16.0938 18.8984C16.2552 18.7318 16.4531 18.6484 16.6875 18.6484H24.5234C24.7578 18.6484 24.9531 18.7318 25.1094 18.8984C25.2708 19.0651 25.3516 19.263 25.3516 19.4922C25.3516 19.7214 25.2708 19.9193 25.1094 20.0859C24.9531 20.2526 24.7578 20.3359 24.5234 20.3359H16.6875ZM15.2109 16.5078C14.9766 16.5078 14.7786 16.4245 14.6172 16.2578C14.4609 16.0859 14.3828 15.888 14.3828 15.6641C14.3828 15.4349 14.4609 15.237 14.6172 15.0703C14.7786 14.9036 14.9766 14.8203 15.2109 14.8203H26C26.2292 14.8203 26.4219 14.9036 26.5781 15.0703C26.7396 15.2318 26.8203 15.4297 26.8203 15.6641C26.8203 15.8932 26.7396 16.0911 26.5781 16.2578C26.4219 16.4245 26.2292 16.5078 26 16.5078H15.2109ZM13.7109 12.6797C13.4818 12.6797 13.2865 12.5964 13.125 12.4297C12.9635 12.2578 12.8828 12.0599 12.8828 11.8359C12.8828 11.6016 12.9635 11.401 13.125 11.2344C13.2865 11.0677 13.4818 10.9844 13.7109 10.9844H27.4688C27.7031 10.9844 27.8984 11.0677 28.0547 11.2344C28.2109 11.401 28.2891 11.6016 28.2891 11.8359C28.2891 12.0599 28.2083 12.2578 28.0469 12.4297C27.8906 12.5964 27.6979 12.6797 27.4688 12.6797H13.7109Z" fill="black"/>
</svg>
