<svg width="20" height="20" viewBox="0 0 20 20" fill="none" xmlns="http://www.w3.org/2000/svg">
<g id="icon" clip-path="url(#clip0_1420_3830)">
<path id="&#244;&#128;&#140;&#158;" d="M16.0601 8.52723C15.7754 8.52723 15.5314 8.42847 15.3281 8.23094C15.1306 8.03341 15.0318 7.7923 15.0318 7.50763C15.0318 7.22295 15.1306 6.98184 15.3281 6.78431C15.5314 6.58678 15.7754 6.48802 16.0601 6.48802C16.339 6.48802 16.5772 6.58678 16.7747 6.78431C16.9781 6.98184 17.0797 7.22295 17.0797 7.50763C17.0797 7.7923 16.9781 8.03341 16.7747 8.23094C16.5772 8.42847 16.339 8.52723 16.0601 8.52723ZM2.53506 18C1.63455 18 0.949006 17.7676 0.478418 17.3028C0.0136393 16.8439 -0.21875 16.167 -0.21875 15.2723V6.61874C-0.21875 5.72404 0.0136393 5.0472 0.478418 4.58824C0.949006 4.12346 1.63455 3.89107 2.53506 3.89107H4.72243C5.03615 3.89107 5.27145 3.85621 5.42831 3.78649C5.59098 3.71097 5.77399 3.56863 5.97733 3.35948L6.63092 2.67102C6.84588 2.45025 7.07827 2.28468 7.32809 2.17429C7.58372 2.0581 7.92068 2 8.33898 2H11.6157C12.034 2 12.368 2.0581 12.6179 2.17429C12.8735 2.28468 13.1088 2.45025 13.3237 2.67102L13.9773 3.35948C14.111 3.49891 14.233 3.60639 14.3433 3.68192C14.4537 3.75744 14.5757 3.81264 14.7094 3.84749C14.8488 3.87654 15.026 3.89107 15.2409 3.89107H17.4545C18.355 3.89107 19.0405 4.12346 19.5111 4.58824C19.9817 5.0472 20.217 5.72404 20.217 6.61874V15.2723C20.217 16.167 19.9817 16.8439 19.5111 17.3028C19.0405 17.7676 18.355 18 17.4545 18H2.53506ZM2.66578 16.2658H17.3237C17.6956 16.2658 17.9802 16.1699 18.1778 15.9782C18.3753 15.7865 18.4741 15.496 18.4741 15.1068V6.78431C18.4741 6.39506 18.3753 6.10748 18.1778 5.92157C17.9802 5.72985 17.6956 5.63399 17.3237 5.63399H14.7094C14.3433 5.63399 14.047 5.59332 13.8205 5.51198C13.5997 5.43065 13.3876 5.27669 13.1843 5.05011L12.5481 4.36166C12.3274 4.11765 12.124 3.95497 11.9381 3.87364C11.758 3.78649 11.4879 3.74292 11.1277 3.74292H8.827C8.47261 3.74292 8.20246 3.78649 8.01654 3.87364C7.83063 3.95497 7.62439 4.12055 7.39781 4.37037L6.77907 5.05011C6.56992 5.27669 6.35496 5.43065 6.13419 5.51198C5.91342 5.59332 5.61713 5.63399 5.2453 5.63399H2.66578C2.29977 5.63399 2.018 5.72985 1.82047 5.92157C1.62874 6.10748 1.53288 6.39506 1.53288 6.78431V15.1068C1.53288 15.496 1.62874 15.7865 1.82047 15.9782C2.018 16.1699 2.29977 16.2658 2.66578 16.2658ZM10.0035 15.2026C9.1843 15.2026 8.43775 15.0051 7.76382 14.61C7.08989 14.2092 6.5554 13.6747 6.16033 13.0065C5.76527 12.3384 5.56774 11.5919 5.56774 10.7669C5.56774 9.9419 5.76527 9.19535 6.16033 8.52723C6.5554 7.8533 7.08989 7.31881 7.76382 6.92375C8.43775 6.52288 9.1843 6.32244 10.0035 6.32244C10.8226 6.32244 11.5663 6.52288 12.2344 6.92375C12.9025 7.31881 13.4341 7.8533 13.8292 8.52723C14.2301 9.19535 14.4305 9.9419 14.4305 10.7669C14.4305 11.5919 14.2301 12.3384 13.8292 13.0065C13.4341 13.6747 12.9025 14.2092 12.2344 14.61C11.5663 15.0051 10.8226 15.2026 10.0035 15.2026ZM10.0035 13.634C10.5322 13.634 11.0115 13.5062 11.4414 13.2505C11.8713 12.9949 12.2141 12.6492 12.4697 12.2135C12.7311 11.7778 12.8619 11.2956 12.8619 10.7669C12.8619 10.2324 12.7311 9.74728 12.4697 9.31155C12.2141 8.87582 11.8713 8.53014 11.4414 8.27451C11.0115 8.01888 10.5322 7.89107 10.0035 7.89107C9.47479 7.89107 8.99258 8.01888 8.55685 8.27451C8.12112 8.53014 7.77544 8.87582 7.51981 9.31155C7.26418 9.74728 7.13637 10.2324 7.13637 10.7669C7.13637 11.2956 7.26418 11.7778 7.51981 12.2135C7.78125 12.6492 8.12693 12.9949 8.55685 13.2505C8.99258 13.5062 9.47479 13.634 10.0035 13.634Z" fill="white"/>
</g>
<defs>
<clipPath id="clip0_1420_3830">
<rect width="20" height="20" fill="white"/>
</clipPath>
</defs>
</svg>
