<svg width="17" height="16" viewBox="0 0 17 16" fill="none" xmlns="http://www.w3.org/2000/svg">
<g clip-path="url(#clip0_50_18)">
<path d="M10.4141 14.7266L4.39844 8.84375C4.14323 8.59896 4.01563 8.31771 4.01563 8C4.01563 7.83854 4.04948 7.6901 4.11719 7.55469C4.17969 7.41406 4.27344 7.28125 4.39844 7.15625L10.4141 1.28906C10.6068 1.08594 10.849 0.984375 11.1406 0.984375C11.3385 0.984375 11.5182 1.03125 11.6797 1.125C11.8359 1.21875 11.9609 1.34636 12.0547 1.50781C12.1484 1.66406 12.1953 1.83854 12.1953 2.03125C12.1953 2.33333 12.0885 2.58854 11.875 2.79688L6.16406 8.35156L6.16406 7.64063L11.875 13.2109C12.0885 13.4193 12.1953 13.6745 12.1953 13.9766C12.1953 14.1693 12.1484 14.3464 12.0547 14.5078C11.9609 14.6641 11.8359 14.7891 11.6797 14.8828C11.5182 14.9766 11.3385 15.0234 11.1406 15.0234C11 15.0234 10.8672 15 10.7422 14.9531C10.6172 14.901 10.5078 14.8255 10.4141 14.7266Z" fill="black"/>
</g>
<defs>
<clipPath id="clip0_50_18">
<rect width="16" height="9" fill="white" transform="translate(13) rotate(90)"/>
</clipPath>
</defs>
</svg>
