<svg width="16" height="9" viewBox="0 0 16 9" fill="none" xmlns="http://www.w3.org/2000/svg">
<path d="M1.27344 6.41406L7.15625 0.398438C7.40104 0.143229 7.68229 0.015625 8 0.015625C8.16146 0.015625 8.3099 0.0494792 8.44531 0.117188C8.58594 0.179688 8.71875 0.273438 8.84375 0.398438L14.7109 6.41406C14.9141 6.60677 15.0156 6.84896 15.0156 7.14062C15.0156 7.33854 14.9688 7.51823 14.875 7.67969C14.7812 7.83594 14.6536 7.96094 14.4922 8.05469C14.3359 8.14844 14.1615 8.19531 13.9688 8.19531C13.6667 8.19531 13.4115 8.08854 13.2031 7.875L7.64844 2.16406H8.35938L2.78906 7.875C2.58073 8.08854 2.32552 8.19531 2.02344 8.19531C1.83073 8.19531 1.65365 8.14844 1.49219 8.05469C1.33594 7.96094 1.21094 7.83594 1.11719 7.67969C1.02344 7.51823 0.976562 7.33854 0.976562 7.14062C0.976562 7 1 6.86719 1.04688 6.74219C1.09896 6.61719 1.17448 6.50781 1.27344 6.41406Z" fill="white"/>
</svg>
