<svg width="16" height="9" viewBox="0 0 16 9" fill="none" xmlns="http://www.w3.org/2000/svg">
<path d="M14.7266 2.58594L8.84375 8.60156C8.59896 8.85677 8.31771 8.98437 8 8.98437C7.83854 8.98437 7.6901 8.95052 7.55469 8.88281C7.41406 8.82031 7.28125 8.72656 7.15625 8.60156L1.28906 2.58594C1.08594 2.39323 0.984376 2.15104 0.984376 1.85937C0.984376 1.66146 1.03125 1.48177 1.125 1.32031C1.21875 1.16406 1.34636 1.03906 1.50781 0.945311C1.66406 0.851561 1.83854 0.804686 2.03125 0.804686C2.33333 0.804686 2.58854 0.911457 2.79688 1.125L8.35156 6.83594L7.64063 6.83594L13.2109 1.125C13.4193 0.911458 13.6745 0.804687 13.9766 0.804687C14.1693 0.804687 14.3464 0.851562 14.5078 0.945312C14.6641 1.03906 14.7891 1.16406 14.8828 1.32031C14.9766 1.48177 15.0234 1.66146 15.0234 1.85937C15.0234 2 15 2.13281 14.9531 2.25781C14.901 2.38281 14.8255 2.49219 14.7266 2.58594Z" fill="white"/>
</svg>
