<svg width="14" height="14" viewBox="0 0 14 14" fill="none" xmlns="http://www.w3.org/2000/svg">
<path id="&#244;&#128;&#129;&#163;" d="M7 14C6.03628 14 5.13191 13.8172 4.28688 13.4517C3.44184 13.0909 2.69651 12.5877 2.05086 11.942C1.40997 11.3011 0.906748 10.5582 0.5412 9.71312C0.1804 8.86809 0 7.96372 0 7C0 6.03154 0.1804 5.12716 0.5412 4.28688C0.906748 3.44184 1.40997 2.69888 2.05086 2.05799C2.69651 1.41234 3.44184 0.909122 4.28688 0.548321C5.13191 0.182774 6.03628 0 7 0C7.96846 0 8.87284 0.182774 9.71312 0.548321C10.5582 0.909122 11.3011 1.41234 11.942 2.05799C12.5877 2.69888 13.0909 3.44184 13.4517 4.28688C13.8172 5.12716 14 6.03154 14 7C14 7.96372 13.8172 8.86809 13.4517 9.71312C13.0909 10.5582 12.5877 11.3011 11.942 11.942C11.3011 12.5877 10.5582 13.0909 9.71312 13.4517C8.87284 13.8172 7.96846 14 7 14ZM6.25941 10.3327C6.52526 10.3327 6.73889 10.2092 6.90031 9.96236L10.0478 5.08444C10.1 5.00848 10.1428 4.93015 10.176 4.84944C10.2092 4.76399 10.2258 4.68091 10.2258 4.6002C10.2258 4.41506 10.157 4.26551 10.0193 4.15158C9.88165 4.03764 9.72499 3.98067 9.54934 3.98067C9.32147 3.98067 9.13157 4.1041 8.97965 4.35097L6.23805 8.73754L4.96338 7.14242C4.87792 7.03323 4.7901 6.9549 4.6999 6.90743C4.6097 6.85995 4.51 6.83622 4.40081 6.83622C4.22041 6.83622 4.06612 6.90031 3.93795 7.02848C3.81451 7.15666 3.7528 7.31095 3.7528 7.49135C3.7528 7.66701 3.81689 7.83316 3.94507 7.98983L5.57579 9.9766C5.67548 10.0953 5.77993 10.1855 5.88912 10.2472C5.9983 10.3042 6.12174 10.3327 6.25941 10.3327Z" fill="white"/>
</svg>
