<svg width="22" height="22" viewBox="0 0 22 22" fill="none" xmlns="http://www.w3.org/2000/svg">
<path id="close" d="M0.477005 21.5261C0.266702 21.3252 0.123314 21.0765 0.0468402 20.78C-0.0200744 20.493 -0.0152948 20.2108 0.061179 19.9335C0.137653 19.6465 0.276261 19.4026 0.477005 19.2017L8.66448 10.9945L0.477005 2.80172C0.276261 2.60085 0.137653 2.36171 0.061179 2.08431C-0.00573553 1.79735 -0.00573553 1.51039 0.061179 1.22342C0.137653 0.936458 0.276261 0.687756 0.477005 0.477316C0.687308 0.257311 0.935848 0.113829 1.22262 0.0468707C1.5094 -0.0200875 1.7914 -0.0153047 2.06862 0.0612189C2.35539 0.128177 2.60393 0.262093 2.81423 0.462968L11.0017 8.67013L19.2035 0.462968C19.5094 0.156873 19.8918 0.00382618 20.3506 0.00382618C20.8095 0.00382618 21.2014 0.161656 21.5264 0.477316C21.8514 0.792976 22.0091 1.18516 21.9996 1.65387C21.9996 2.11301 21.8466 2.49563 21.5407 2.80172L13.3389 10.9945L21.5407 19.2017C21.8466 19.5078 21.9996 19.8904 21.9996 20.3495C21.9996 20.8087 21.8419 21.2009 21.5264 21.5261C21.2014 21.8513 20.8095 22.0092 20.3506 21.9996C19.8918 21.9996 19.5094 21.8465 19.2035 21.5404L11.0017 13.3333L2.81423 21.5404C2.60393 21.7413 2.35539 21.8752 2.06862 21.9422C1.7914 22.0187 1.5094 22.0187 1.22262 21.9422C0.935848 21.8752 0.687308 21.7365 0.477005 21.5261Z" fill="white"/>
</svg>
