<svg width="12" height="12" viewBox="0 0 12 12" fill="none" xmlns="http://www.w3.org/2000/svg">
<path d="M0.259896 11.7208C0.145312 11.6115 0.0671875 11.476 0.0255208 11.3146C-0.0109375 11.1583 -0.00833333 11.0047 0.0333333 10.8536C0.075 10.6974 0.150521 10.5646 0.259896 10.4552L4.72083 5.98646L0.259896 1.52552C0.150521 1.41615 0.075 1.28594 0.0333333 1.1349C-0.003125 0.978646 -0.003125 0.822396 0.0333333 0.666146C0.075 0.509896 0.150521 0.374479 0.259896 0.259896C0.374479 0.140104 0.509896 0.0619792 0.666146 0.0255208C0.822396 -0.0109375 0.976042 -0.00833333 1.12708 0.0333333C1.28333 0.0697917 1.41875 0.142708 1.53333 0.252083L5.99427 4.72083L10.463 0.252083C10.6297 0.0854167 10.838 0.00208333 11.088 0.00208333C11.338 0.00208333 11.5516 0.0880208 11.7286 0.259896C11.9057 0.431771 11.9917 0.645313 11.9865 0.900521C11.9865 1.15052 11.9031 1.35885 11.7365 1.52552L7.26771 5.98646L11.7365 10.4552C11.9031 10.6219 11.9865 10.8302 11.9865 11.0802C11.9865 11.3302 11.9005 11.5438 11.7286 11.7208C11.5516 11.8979 11.338 11.9839 11.088 11.9786C10.838 11.9786 10.6297 11.8953 10.463 11.7286L5.99427 7.2599L1.53333 11.7286C1.41875 11.838 1.28333 11.9109 1.12708 11.9474C0.976042 11.9891 0.822396 11.9891 0.666146 11.9474C0.509896 11.9109 0.374479 11.8354 0.259896 11.7208Z" fill="black"/>
</svg>
