<svg width="18" height="16" viewBox="0 0 18 16" fill="none" xmlns="http://www.w3.org/2000/svg">
<g id="icon-down" clip-path="url(#clip0_1420_3817)">
<path id="Vector" d="M2.01899 1.05455C2.43111 0.642424 2.91596 0.363636 3.48565 0.218182C4.05535 0.0727273 4.69777 0 5.43717 0H5.5705V1.6H5.4008C4.9402 1.6 4.51596 1.64848 4.12808 1.73333C3.7402 1.81818 3.42505 1.97576 3.19474 2.21818C2.96444 2.46061 2.80687 2.76364 2.7099 3.13939C2.61293 3.51515 2.57656 3.93939 2.57656 4.38788V4.53333H0.976562V4.42424C0.976562 3.68485 1.04929 3.04242 1.19474 2.48485C1.3402 1.92727 1.61899 1.45455 2.01899 1.04242V1.05455ZM0.976562 10.2545V5.75758H2.57656V10.2545H0.976562ZM2.01899 14.9455C1.7402 14.6788 1.53414 14.3758 1.38868 14.0364C1.24323 13.697 1.13414 13.3212 1.07353 12.9091C1.01293 12.497 0.976562 12.0364 0.976562 11.5273V11.4545H2.57656V11.6364C2.57656 12.0727 2.62505 12.4848 2.7099 12.8606C2.79474 13.2364 2.95232 13.5394 3.19474 13.7818C3.43717 14.0121 3.7402 14.1697 4.12808 14.2667C4.51596 14.3636 4.92808 14.4 5.37656 14.4H5.58262V16H5.47353C4.97656 16 4.51596 15.9636 4.09171 15.903C3.66747 15.8424 3.29171 15.7333 2.95232 15.5879C2.61293 15.4424 2.29777 15.2242 2.03111 14.9455H2.01899ZM9.01293 12.3394C8.91596 12.3394 8.81899 12.3152 8.73414 12.2788C8.64929 12.2424 8.55232 12.1818 8.45535 12.0848L5.61899 9.33333C5.55838 9.26061 5.49777 9.18788 5.46141 9.11515C5.42505 9.04242 5.4008 8.95758 5.4008 8.86061C5.4008 8.67879 5.46141 8.53333 5.59474 8.41212C5.72808 8.29091 5.87353 8.2303 6.05535 8.2303C6.24929 8.2303 6.41899 8.30303 6.55232 8.44848L7.82505 9.79394L8.33414 10.4L8.27353 9.13939V4.37576C8.27353 4.18182 8.34626 4.01212 8.49171 3.86667C8.63717 3.72121 8.80687 3.64848 9.01293 3.64848C9.21899 3.64848 9.38868 3.72121 9.53414 3.86667C9.67959 4.01212 9.75232 4.18182 9.75232 4.37576V9.13939L9.69171 10.4L10.1887 9.80606L11.4614 8.46061C11.5947 8.31515 11.7523 8.24242 11.9463 8.24242C12.1281 8.24242 12.2857 8.30303 12.4069 8.42424C12.5281 8.54545 12.6008 8.69091 12.6008 8.87273C12.6008 8.9697 12.5887 9.05455 12.5523 9.12727C12.516 9.2 12.4675 9.27273 12.3947 9.34546L9.55838 12.097C9.46141 12.1818 9.36444 12.2545 9.27959 12.2909C9.19474 12.3273 9.09777 12.3515 9.0008 12.3515L9.01293 12.3394ZM6.78262 1.61212V0H11.219V1.61212H6.78262ZM6.78262 16V14.4H11.219V16H6.78262ZM15.9826 1.05455C16.2493 1.32121 16.4675 1.62424 16.6129 1.96364C16.7584 2.30303 16.8675 2.67879 16.9281 3.09091C16.9887 3.50303 17.0129 3.96364 17.0129 4.47273V4.54545H15.4129V4.36364C15.4129 3.92727 15.3644 3.51515 15.2796 3.13939C15.1947 2.76364 15.0372 2.46061 14.7947 2.21818C14.5523 1.97576 14.2493 1.81818 13.8614 1.73333C13.4735 1.64848 13.0614 1.6 12.6129 1.6H12.4069V0H12.516C13.025 0 13.4857 0.0242424 13.9099 0.0848485C14.3341 0.145455 14.7099 0.254545 15.0493 0.4C15.3887 0.545455 15.7038 0.763636 15.9705 1.0303L15.9826 1.05455ZM15.9826 14.9455C15.5705 15.3576 15.0857 15.6364 14.516 15.7818C13.9463 15.9273 13.2917 16 12.5281 16H12.419V14.4H12.625C13.0735 14.4 13.4857 14.3515 13.8735 14.2667C14.2614 14.1818 14.5644 14.0121 14.8069 13.7818C15.0493 13.5394 15.2069 13.2364 15.2917 12.8606C15.3766 12.4848 15.425 12.0727 15.425 11.6364V11.4545H17.025V11.5273C17.025 12.0242 17.0008 12.4848 16.9402 12.897C16.8796 13.3091 16.7705 13.6848 16.625 14.0242C16.4796 14.3636 16.2614 14.6667 15.9947 14.9333L15.9826 14.9455ZM15.4129 10.2545V5.75758H17.025V10.2545H15.4129Z" fill="black"/>
</g>
<defs>
<clipPath id="clip0_1420_3817">
<rect width="16.0485" height="16" fill="white" transform="translate(0.976562)"/>
</clipPath>
</defs>
</svg>
