<svg width="20" height="20" viewBox="0 0 20 20" fill="none" xmlns="http://www.w3.org/2000/svg">
<g id="icon">
<path id="&#244;&#128;&#139;&#145;" d="M1.8626 9.1715L16.8234 2.22635C17.1925 2.04751 17.532 1.97464 17.8419 2.00776C18.1583 2.04088 18.4187 2.15349 18.623 2.34558C18.8274 2.53105 18.9493 2.77613 18.9889 3.08083C19.0284 3.38553 18.9625 3.72997 18.7911 4.11416L11.8991 19.0577C11.7606 19.3491 11.5859 19.571 11.375 19.7234C11.1641 19.8823 10.9366 19.9718 10.6927 19.9916C10.4554 20.0181 10.2313 19.9817 10.0203 19.8823C9.80937 19.7896 9.63468 19.6373 9.49625 19.4253C9.36441 19.2199 9.29849 18.9583 9.29849 18.6404L9.27871 11.8741C9.27871 11.7879 9.23916 11.7449 9.16005 11.7449L2.37678 11.7151C2.07354 11.7151 1.81645 11.6488 1.6055 11.5164C1.39456 11.3839 1.23635 11.215 1.13087 11.0096C1.03199 10.7977 0.989142 10.5758 1.00233 10.3439C1.01551 10.1121 1.09132 9.89351 1.22975 9.68817C1.37478 9.4762 1.58573 9.30398 1.8626 9.1715ZM3.86 10.0955L10.139 10.0558C10.3961 10.0558 10.5938 10.1287 10.7323 10.2744C10.8707 10.4135 10.9399 10.6089 10.9399 10.8606L10.9004 17.1798C10.9004 17.1997 10.907 17.2096 10.9201 17.2096C10.9333 17.2096 10.9432 17.203 10.9498 17.1897L16.9321 4.11416C16.9519 4.08104 16.9552 4.05786 16.942 4.04461C16.9288 4.03136 16.9058 4.03136 16.8728 4.04461L3.85011 10.026C3.83034 10.0392 3.82045 10.0558 3.82045 10.0757C3.82704 10.0889 3.84023 10.0955 3.86 10.0955Z" fill="black"/>
</g>
</svg>
