<svg width="20" height="20" viewBox="0 0 20 20" fill="none" xmlns="http://www.w3.org/2000/svg">
<g id="icon">
<path id="&#244;&#128;&#163;&#179;" d="M11.1406 16.8203C10.6979 16.8203 10.2995 16.75 9.94531 16.6094C9.82031 16.6094 9.69271 16.612 9.5625 16.6172C9.4375 16.6224 9.3125 16.625 9.1875 16.625C8.52604 16.625 7.86979 16.5599 7.21875 16.4297C6.57292 16.2995 5.96094 16.0964 5.38281 15.8203C4.80469 15.5443 4.28646 15.1927 3.82812 14.7656C3.375 14.3385 3.01042 13.8333 2.73438 13.25C2.46354 12.6615 2.3099 11.9896 2.27344 11.2344C2.36719 11.3281 2.47656 11.401 2.60156 11.4531C2.72656 11.5052 2.86198 11.5312 3.00781 11.5312C3.1901 11.5312 3.35677 11.4974 3.50781 11.4297C3.66406 11.3568 3.79948 11.2604 3.91406 11.1406C3.9349 11.625 4.03125 12.0599 4.20312 12.4453C4.375 12.8307 4.60677 13.1745 4.89844 13.4766C5.19531 13.7734 5.53906 14.026 5.92969 14.2344C6.32552 14.4427 6.75521 14.6068 7.21875 14.7266C7.6875 14.8464 8.17188 14.9219 8.67188 14.9531C8.63542 14.5312 8.69792 14.151 8.85938 13.8125C9.02083 13.4688 9.26042 13.1797 9.57812 12.9453C9.90104 12.7057 10.276 12.5208 10.7031 12.3906C11.1302 12.2604 11.5885 12.1953 12.0781 12.1953C12.6979 12.1953 13.2656 12.3151 13.7812 12.5547C14.2969 12.7891 14.724 13.112 15.0625 13.5234C15.5365 13.0911 15.9193 12.5964 16.2109 12.0391C16.5026 11.4818 16.6484 10.8984 16.6484 10.2891C16.6484 9.6224 16.5182 9.01042 16.2578 8.45312C15.9974 7.89583 15.6302 7.40885 15.1562 6.99219C14.6875 6.57031 14.1302 6.23698 13.4844 5.99219C12.8438 5.7474 12.138 5.60677 11.3672 5.57031C11.513 5.42448 11.5859 5.22917 11.5859 4.98438C11.5859 4.77604 11.5443 4.58073 11.4609 4.39844C11.3828 4.21615 11.2708 4.05729 11.125 3.92188C12.1615 3.9375 13.1146 4.10417 13.9844 4.42188C14.8594 4.73958 15.6172 5.18229 16.2578 5.75C16.8984 6.31771 17.3958 6.98698 17.75 7.75781C18.1042 8.52865 18.2812 9.3724 18.2812 10.2891C18.2812 11.2161 18.0547 12.0938 17.6016 12.9219C17.1484 13.75 16.5573 14.4661 15.8281 15.0703C15.901 15.3568 15.9375 15.6641 15.9375 15.9922C15.9375 16.6641 15.7552 17.3125 15.3906 17.9375C15.026 18.5677 14.5312 19.0859 13.9062 19.4922C13.7292 19.6172 13.5443 19.6797 13.3516 19.6797C13.1068 19.6797 12.9062 19.6042 12.75 19.4531C12.5938 19.3073 12.5156 19.125 12.5156 18.9062C12.5156 18.7344 12.5599 18.5859 12.6484 18.4609C12.7422 18.3359 12.8646 18.2161 13.0156 18.1016C13.349 17.888 13.6172 17.625 13.8203 17.3125C14.0286 17 14.1536 16.6745 14.1953 16.3359C14.2005 16.2943 14.2005 16.2552 14.1953 16.2188C14.1953 16.1771 14.1953 16.138 14.1953 16.1016C13.7214 16.3307 13.224 16.5078 12.7031 16.6328C12.1823 16.7578 11.6615 16.8203 11.1406 16.8203ZM11.1406 15.1797C11.5833 15.1797 12.0234 15.1224 12.4609 15.0078C12.9036 14.888 13.3255 14.7214 13.7266 14.5078C13.5443 14.3047 13.3203 14.1458 13.0547 14.0312C12.7891 13.9115 12.4974 13.8516 12.1797 13.8516C11.8203 13.8516 11.4974 13.8906 11.2109 13.9688C10.9297 14.0469 10.7057 14.1562 10.5391 14.2969C10.3776 14.4375 10.2969 14.5964 10.2969 14.7734C10.2969 14.8828 10.3776 14.9792 10.5391 15.0625C10.7005 15.1406 10.901 15.1797 11.1406 15.1797ZM6.5 8.96875C6.30208 8.96875 6.1875 8.86198 6.15625 8.64844C6.06771 8.14323 5.97656 7.71615 5.88281 7.36719C5.79427 7.01823 5.67969 6.72917 5.53906 6.5C5.40365 6.27083 5.22135 6.08594 4.99219 5.94531C4.76823 5.80469 4.48177 5.6875 4.13281 5.59375C3.78385 5.5 3.35677 5.41667 2.85156 5.34375C2.6276 5.30729 2.51562 5.1875 2.51562 4.98438C2.51562 4.89062 2.54688 4.8125 2.60938 4.75C2.67188 4.68229 2.7526 4.64062 2.85156 4.625C3.36719 4.55729 3.79948 4.47917 4.14844 4.39062C4.4974 4.30208 4.78385 4.1849 5.00781 4.03906C5.23177 3.89323 5.41146 3.70573 5.54688 3.47656C5.6875 3.24219 5.80208 2.95052 5.89062 2.60156C5.98438 2.2526 6.07292 1.82292 6.15625 1.3125C6.1875 1.10417 6.30208 1 6.5 1C6.70833 1 6.82812 1.10677 6.85938 1.32031C6.94271 1.82552 7.02865 2.25521 7.11719 2.60938C7.20573 2.95833 7.32031 3.2474 7.46094 3.47656C7.60156 3.70573 7.78385 3.89323 8.00781 4.03906C8.23698 4.1849 8.52344 4.30469 8.86719 4.39844C9.21615 4.48698 9.64844 4.5625 10.1641 4.625C10.3828 4.65625 10.4922 4.77604 10.4922 4.98438C10.4922 5.07812 10.4609 5.15885 10.3984 5.22656C10.3411 5.29427 10.263 5.33333 10.1641 5.34375C9.64323 5.41146 9.20833 5.48958 8.85938 5.57812C8.51042 5.66667 8.22396 5.78385 8 5.92969C7.77604 6.07552 7.59635 6.26562 7.46094 6.5C7.32552 6.72917 7.21354 7.02083 7.125 7.375C7.03646 7.72396 6.94792 8.15104 6.85938 8.65625C6.82292 8.86458 6.70312 8.96875 6.5 8.96875ZM3.00781 10.4297C2.85677 10.4297 2.76823 10.3464 2.74219 10.1797C2.6849 9.8724 2.63542 9.63021 2.59375 9.45312C2.55729 9.27083 2.49479 9.13542 2.40625 9.04688C2.32292 8.95833 2.19271 8.89062 2.01562 8.84375C1.83854 8.79688 1.58333 8.7474 1.25 8.69531C1.08333 8.66406 1 8.57292 1 8.42188C1 8.27604 1.07552 8.1875 1.22656 8.15625C1.5651 8.09896 1.82552 8.04688 2.00781 8C2.1901 7.94792 2.32292 7.8776 2.40625 7.78906C2.49479 7.69531 2.55729 7.5625 2.59375 7.39062C2.63542 7.21354 2.6849 6.97135 2.74219 6.66406C2.76823 6.5026 2.85677 6.42188 3.00781 6.42188C3.15885 6.42188 3.2474 6.5026 3.27344 6.66406C3.32552 6.97656 3.36979 7.22135 3.40625 7.39844C3.44792 7.57552 3.51302 7.71094 3.60156 7.80469C3.6901 7.89323 3.82552 7.96354 4.00781 8.01562C4.1901 8.0625 4.45052 8.10938 4.78906 8.15625C4.9401 8.18229 5.01562 8.27083 5.01562 8.42188C5.01562 8.57292 4.9401 8.66406 4.78906 8.69531C4.45052 8.7474 4.1901 8.79948 4.00781 8.85156C3.82552 8.89844 3.6901 8.96875 3.60156 9.0625C3.51302 9.15104 3.44792 9.28385 3.40625 9.46094C3.36979 9.63802 3.32552 9.88542 3.27344 10.2031C3.2474 10.3542 3.15885 10.4297 3.00781 10.4297Z" fill="white"/>
</g>
</svg>
