<svg width="17" height="11" viewBox="0 0 17 11" fill="none" xmlns="http://www.w3.org/2000/svg">
<path d="M4.6875 10.3359C4.45312 10.3359 4.25521 10.2526 4.09375 10.0859C3.93229 9.91927 3.85156 9.72135 3.85156 9.49219C3.85156 9.26302 3.93229 9.0651 4.09375 8.89844C4.25521 8.73177 4.45312 8.64844 4.6875 8.64844H12.5234C12.7578 8.64844 12.9531 8.73177 13.1094 8.89844C13.2708 9.0651 13.3516 9.26302 13.3516 9.49219C13.3516 9.72135 13.2708 9.91927 13.1094 10.0859C12.9531 10.2526 12.7578 10.3359 12.5234 10.3359H4.6875ZM3.21094 6.50781C2.97656 6.50781 2.77865 6.42448 2.61719 6.25781C2.46094 6.08594 2.38281 5.88802 2.38281 5.66406C2.38281 5.4349 2.46094 5.23698 2.61719 5.07031C2.77865 4.90365 2.97656 4.82031 3.21094 4.82031H14C14.2292 4.82031 14.4219 4.90365 14.5781 5.07031C14.7396 5.23177 14.8203 5.42969 14.8203 5.66406C14.8203 5.89323 14.7396 6.09115 14.5781 6.25781C14.4219 6.42448 14.2292 6.50781 14 6.50781H3.21094ZM1.71094 2.67969C1.48177 2.67969 1.28646 2.59635 1.125 2.42969C0.963542 2.25781 0.882812 2.0599 0.882812 1.83594C0.882812 1.60156 0.963542 1.40104 1.125 1.23438C1.28646 1.06771 1.48177 0.984375 1.71094 0.984375H15.4688C15.7031 0.984375 15.8984 1.06771 16.0547 1.23438C16.2109 1.40104 16.2891 1.60156 16.2891 1.83594C16.2891 2.0599 16.2083 2.25781 16.0469 2.42969C15.8906 2.59635 15.6979 2.67969 15.4688 2.67969H1.71094Z" fill="black"/>
</svg>
