<svg width="14" height="3" viewBox="0 0 14 3" fill="none" xmlns="http://www.w3.org/2000/svg">
<path d="M1.39062 2.375C1.21875 2.375 1.05729 2.33073 0.90625 2.24219C0.755208 2.14844 0.632812 2.02604 0.539062 1.875C0.445312 1.71875 0.398438 1.54948 0.398438 1.36719C0.398438 1.1849 0.445312 1.01823 0.539062 0.867188C0.632812 0.716146 0.755208 0.596354 0.90625 0.507812C1.05729 0.414062 1.21875 0.367188 1.39062 0.367188H12.6016C12.7786 0.367188 12.9427 0.414062 13.0938 0.507812C13.2448 0.596354 13.3646 0.716146 13.4531 0.867188C13.5469 1.01823 13.5938 1.1849 13.5938 1.36719C13.5938 1.54948 13.5469 1.71875 13.4531 1.875C13.3646 2.02604 13.2448 2.14844 13.0938 2.24219C12.9427 2.33073 12.7786 2.375 12.6016 2.375H1.39062Z" fill="white"/>
</svg>
