<svg width="20" height="20" viewBox="0 0 20 20" fill="none" xmlns="http://www.w3.org/2000/svg">
<path d="M6.8851 4.13425C6.8851 3.55586 7.02579 3.02958 7.30717 2.5554C7.58854 2.08123 7.96372 1.70345 8.43268 1.42207C8.90686 1.14069 9.43314 1 10.0115 1C10.5899 1 11.1136 1.14069 11.5826 1.42207C12.0567 1.70345 12.4319 2.08123 12.7081 2.5554C12.9895 3.02958 13.1302 3.55586 13.1302 4.13425C13.1302 4.60322 13.0338 5.04352 12.841 5.45517C12.6534 5.86682 12.3902 6.21854 12.0515 6.51034C11.718 6.79694 11.3351 7.00536 10.9026 7.13563V11.7549C10.9026 12.3542 10.8531 12.8883 10.7541 13.3572C10.6551 13.821 10.5352 14.1857 10.3945 14.4515C10.2538 14.7172 10.1262 14.8501 10.0115 14.8501C9.89169 14.8501 9.76142 14.7172 9.62073 14.4515C9.48525 14.1805 9.3654 13.8132 9.26119 13.3494C9.16218 12.8857 9.11268 12.3542 9.11268 11.7549V7.13563C8.6854 7.00536 8.30241 6.79433 7.96372 6.50253C7.63023 6.21073 7.36709 5.86161 7.17429 5.45517C6.98149 5.04352 6.8851 4.60322 6.8851 4.13425ZM9.12831 4.30621C9.42533 4.30621 9.67805 4.19939 9.88648 3.98575C10.0949 3.77211 10.1991 3.52199 10.1991 3.2354C10.1991 2.94881 10.0949 2.7013 9.88648 2.49287C9.67805 2.27923 9.42533 2.17241 9.12831 2.17241C8.84694 2.17241 8.59943 2.27923 8.38579 2.49287C8.17215 2.7013 8.06533 2.94881 8.06533 3.2354C8.06533 3.52199 8.17215 3.77211 8.38579 3.98575C8.59943 4.19939 8.84694 4.30621 9.12831 4.30621ZM10.0037 18C8.75835 18 7.63544 17.9062 6.63498 17.7186C5.63973 17.531 4.79038 17.2679 4.08694 16.9292C3.38349 16.5957 2.84418 16.2049 2.469 15.7568C2.09904 15.3139 1.91406 14.8371 1.91406 14.3264C1.91406 13.8158 2.08341 13.352 2.42211 12.9352C2.76081 12.5131 3.21153 12.1457 3.77429 11.8331C4.34226 11.5205 4.97276 11.2703 5.66579 11.0828C6.36402 10.89 7.07268 10.7675 7.79176 10.7154V12.3099C7.31759 12.3464 6.84602 12.4167 6.37705 12.5209C5.90809 12.6251 5.48081 12.7632 5.09521 12.9352C4.71483 13.1019 4.4074 13.2947 4.17291 13.5136C3.94364 13.7272 3.829 13.9617 3.829 14.217C3.829 14.6443 4.09215 15.0169 4.61843 15.3347C5.14992 15.6578 5.88203 15.9079 6.81475 16.0851C7.74747 16.2622 8.81046 16.3508 10.0037 16.3508C11.197 16.3508 12.2574 16.2596 13.1849 16.0772C14.1176 15.9001 14.8471 15.6526 15.3734 15.3347C15.9049 15.0169 16.1706 14.6443 16.1706 14.217C16.1706 13.9617 16.0534 13.7272 15.8189 13.5136C15.5896 13.2947 15.2822 13.1019 14.8966 12.9352C14.5162 12.7632 14.0915 12.6251 13.6226 12.5209C13.1588 12.4167 12.6898 12.3464 12.2157 12.3099V10.7154C12.9348 10.7675 13.6408 10.89 14.3338 11.0828C15.0321 11.2703 15.6626 11.5205 16.2253 11.8331C16.7933 12.1457 17.244 12.5131 17.5775 12.9352C17.9162 13.352 18.0856 13.8158 18.0856 14.3264C18.0856 14.8371 17.898 15.3139 17.5228 15.7568C17.1528 16.2049 16.6161 16.5957 15.9127 16.9292C15.2144 17.2679 14.3651 17.531 13.3646 17.7186C12.3694 17.9062 11.2491 18 10.0037 18Z" fill="white"/>
</svg>
