<svg width="78" height="48" viewBox="0 0 78 48" fill="none" xmlns="http://www.w3.org/2000/svg">
<g clip-path="url(#clip0_1916_7454)">
<path d="M22.1992 0.280029V22.43H30.0492V18.73H25.8792V12.79H29.6692V9.57003H25.8792V3.98003H30.0492V0.280029H22.1992Z" fill="white"/>
<path d="M20.8287 16.71C20.8287 20.52 19.4187 22.65 15.9087 22.65C12.3987 22.65 10.7188 20.99 10.7188 14.75H14.3987C14.3987 18.31 14.8687 18.98 15.9187 18.98C16.8888 18.98 17.1587 18.37 17.1587 16.71C17.1587 14.86 16.7188 14.11 14.8088 12.57C12.8188 10.99 10.7787 9.59 10.7787 5.61C10.7787 2.1 12.2387 0 15.6388 0C19.0387 0 20.6088 2.1 20.6088 6.8H16.9087C16.9087 4.26 16.4388 3.68 15.6388 3.68C14.8387 3.68 14.4487 4.26 14.4487 5.61C14.4487 7.35 15.2487 8.1 16.8287 9.31C19.1487 11.08 20.8387 12.6 20.8387 16.71" fill="white"/>
<path d="M53.8719 0.27002H57.5419V16.41C57.5419 20.86 55.7719 22.65 52.4819 22.65C49.1919 22.65 47.4219 20.85 47.4219 16.41V0.27002H51.1019V16.21C51.1019 18.31 51.3519 18.97 52.4819 18.97C53.6119 18.97 53.8619 18.31 53.8619 16.21V0.27002H53.8719Z" fill="white"/>
<path d="M58.8984 0.280029V22.43H66.5084V18.74H62.5784V0.280029H58.8984Z" fill="white"/>
<path d="M41.9891 10.85C41.2891 12.59 40.3991 14.75 38.5691 17.12C36.6891 14.75 35.8091 12.59 35.1091 10.85C34.4091 9.12995 33.6791 5.03995 35.4891 4.52995C36.8691 4.13995 37.8291 5.49995 38.2691 6.38995C38.3891 6.62995 38.7491 6.62995 38.8691 6.38995C39.3091 5.49995 40.2491 4.13995 41.6291 4.52995C43.4391 5.03995 42.6991 9.12995 42.0091 10.85M43.0891 0.0999518C40.0791 -0.530048 38.5491 2.25995 38.5491 2.25995C38.5491 2.25995 37.0291 -0.530048 33.9991 0.0999518C30.9891 0.719952 30.1391 5.70995 31.4791 10.2C32.6991 14.39 35.4291 19.16 37.9891 22.28C38.2791 22.63 38.8191 22.63 39.0991 22.28C41.6891 19.16 44.3991 14.39 45.6491 10.2C46.9691 5.69995 46.1191 0.709952 43.0891 0.0999518Z" fill="white"/>
<path d="M6.7 39.3L9.72 25.37H13.4V47.52H9.72V36.86L7.64 47.52H5.76L3.68 36.86V47.52H0V25.37H3.68L6.7 39.3Z" fill="white"/>
<path d="M27.9995 25.37L21.9895 39.12H20.0195L14.0195 25.37H27.9995Z" fill="white"/>
<path d="M17.3281 44.07C17.3281 42.04 18.9781 40.39 21.0081 40.39C23.0381 40.39 24.6881 42.04 24.6881 44.07C24.6881 46.1 23.0381 47.75 21.0081 47.75C18.9781 47.75 17.3281 46.1 17.3281 44.07Z" fill="white"/>
<path d="M41.4516 41.81C41.4516 45.62 40.0416 47.75 36.5416 47.75C33.0416 47.75 31.3516 46.09 31.3516 39.85H35.0216C35.0216 43.41 35.4916 44.08 36.5416 44.08C37.5116 44.08 37.7816 43.47 37.7816 41.81C37.7816 39.96 37.3416 39.21 35.4316 37.67C33.4416 36.1 31.4016 34.69 31.4016 30.71C31.4016 27.2 32.8616 25.1 36.2516 25.1C39.6416 25.1 41.2116 27.2 41.2116 31.9H37.5116C37.5116 29.36 37.0416 28.78 36.2416 28.78C35.4416 28.78 35.0516 29.36 35.0516 30.71C35.0516 32.45 35.8516 33.2 37.4216 34.41C39.7416 36.18 41.4216 37.7 41.4216 41.81" fill="white"/>
<path d="M49.2291 31.53C49.2291 29.43 48.9791 28.77 47.8491 28.77C46.7191 28.77 46.4691 29.43 46.4691 31.53V41.31C46.4691 43.41 46.7191 44.07 47.8491 44.07C48.9791 44.07 49.2291 43.41 49.2291 41.31V31.53ZM52.9091 31.34V41.51C52.9091 45.96 51.1391 47.75 47.8491 47.75C44.5591 47.75 42.7891 45.95 42.7891 41.51V31.34C42.7891 26.89 44.5591 25.1 47.8491 25.1C51.1391 25.1 52.9091 26.89 52.9091 31.34Z" fill="white"/>
<path d="M73.2894 25.37V43.84H77.2194V47.52H69.6094V25.37H73.2894Z" fill="white"/>
<path d="M68.4094 37.83V40.49C68.4094 44.43 65.1994 47.64 61.2594 47.64C57.3194 47.64 54.1094 44.43 54.1094 40.49V37.83H57.7894V40.49C57.7894 42.41 59.3494 43.97 61.2694 43.97C63.1894 43.97 64.7494 42.41 64.7494 40.49V37.83H68.4294H68.4094Z" fill="white"/>
<path d="M60.1214 25.37H56.4414V36.1H60.1214V25.37Z" fill="white"/>
<path d="M66.0706 25.37H62.3906V36.1H66.0706V25.37Z" fill="white"/>
</g>
<defs>
<clipPath id="clip0_1916_7454">
<rect width="77.22" height="47.75" fill="white"/>
</clipPath>
</defs>
</svg>
