<svg width="97" height="37" viewBox="0 0 97 37" fill="none" xmlns="http://www.w3.org/2000/svg">
<g clip-path="url(#clip0_1916_7424)">
<path d="M86.7866 36.6746C86.1218 36.6746 85.5508 36.6126 85.0112 36.3724C84.1352 35.9772 83.6737 35.0784 83.9084 34.1408C84.0882 33.4202 84.3698 32.7383 84.9486 32.2346C85.4961 31.7542 86.1296 31.421 86.8961 31.421C87.1073 31.421 87.2793 31.328 87.4592 31.2583C87.9363 31.0723 88.4134 30.8553 88.9375 30.8088C89.2347 30.7856 89.4537 30.5299 89.438 30.2974C89.4146 30.0107 89.1799 29.9177 88.9453 29.8558C88.343 29.7008 87.7486 29.8558 87.1542 29.8945C86.7944 29.9178 86.4346 29.9642 86.067 29.9642C85.4413 29.9642 84.8235 29.9952 84.2056 30.0805C84.0648 30.1037 83.924 30.0572 83.8301 29.9255C83.7441 29.8015 83.7598 29.6698 83.8145 29.5303C84.0257 29.0034 84.448 28.7554 84.9721 28.647C85.9184 28.4455 86.8805 28.3138 87.8425 28.244C88.7106 28.182 89.6023 28.182 90.3844 28.6547C90.9397 28.9879 91.4403 29.3986 91.542 30.096C91.6045 30.5221 91.4559 30.9328 91.1978 31.266C90.6894 31.9169 90.0481 32.4438 89.3676 32.8932C88.9531 33.1567 88.4369 33.1722 87.9442 33.1025C87.5687 33.0482 87.209 33.0327 86.857 33.1877C86.771 33.2264 86.6771 33.2962 86.5832 33.2962C86.1844 33.2962 86.0827 33.5364 86.0201 33.8618C85.9732 34.0788 85.9575 34.288 85.9575 34.5205C85.9575 34.9931 86.3643 35.0939 86.771 35.0551C87.7252 34.9544 88.5308 34.5127 89.3442 34.0633C89.5162 33.9703 89.6961 33.8773 89.8995 33.8618C90.1811 33.8386 90.2358 33.9548 90.2202 34.2183C90.1576 34.9467 89.7274 35.3961 89.1174 35.7293C88.9062 35.8455 88.7028 35.985 88.5151 36.1322C87.9911 36.5584 87.3888 36.7288 86.7944 36.6901" fill="white"/>
<path d="M71.7227 32.4903C71.8713 31.9091 71.9182 31.2582 71.9886 30.6074C72.0824 29.755 72.3562 28.9336 72.4657 28.0813C72.5204 27.6474 72.716 27.2367 72.8802 26.8183C73.2009 25.9736 73.5372 25.129 73.8735 24.2922C74.2177 23.4476 74.6557 22.6572 75.2892 21.9753C75.43 21.8203 75.6255 21.7584 75.8132 21.6964C76.0087 21.6344 76.2043 21.8358 76.1652 22.0915C76.0478 22.7734 76.0244 23.4631 75.821 24.1295C75.516 25.1213 75.2501 26.1364 74.9685 27.1359C74.9216 27.3064 74.9529 27.4769 75.0936 27.5699C75.7506 28.0115 76.1886 28.6159 76.6266 29.2591C77.1037 29.9642 77.6199 30.6539 78.2065 31.2737C78.4255 31.4985 78.668 31.6767 78.973 31.7697C79.2468 31.8549 79.2389 31.9169 79.0903 32.1648C78.8792 32.5135 78.5663 32.7073 78.2065 32.8622C78.0266 32.9397 77.8859 32.9087 77.7216 32.839C76.6188 32.3973 75.7428 31.6457 74.9372 30.8088C74.7964 30.6616 74.6791 30.4989 74.5383 30.3594C74.3741 30.1889 74.2333 30.2199 74.1786 30.4524C74.0925 30.8088 74.0534 31.173 73.9752 31.5295C73.8735 31.9556 73.8422 32.3973 73.5372 32.7692C73.2556 33.1102 72.583 33.3349 72.1607 33.1877C71.8869 33.0869 71.7227 32.8467 71.7305 32.4903" fill="white"/>
<path d="M50.6181 31.4752C50.6181 31.7774 50.6181 32.0098 50.6181 32.2423C50.6259 32.5522 50.712 32.6142 50.9701 32.4592C51.455 32.1803 51.8304 31.7851 52.0963 31.2969C52.1511 31.1962 52.1511 31.1032 52.1198 31.0102C51.893 30.3439 51.9086 29.6465 51.8382 28.9646C51.8148 28.7166 51.7366 28.7011 51.541 28.8019C51.322 28.9181 51.0874 28.9956 50.8449 29.0498C50.5946 29.1041 50.4695 29.228 50.4851 29.4992C50.5164 30.1811 50.6494 30.863 50.6103 31.4752M50.2427 24.7183C50.1879 25.5242 50.4382 26.3068 50.3678 27.1127C50.3522 27.2676 50.4382 27.3684 50.6259 27.3606C50.8684 27.3451 51.1109 27.3606 51.3533 27.3606C51.7913 27.3606 51.893 27.2676 51.8852 26.8414C51.8695 26.1673 51.9712 25.5242 52.2371 24.8965C52.3544 24.6098 52.5421 24.3851 52.8159 24.2379C53.0975 24.0907 53.2852 24.1372 53.4416 24.4161C53.4964 24.5168 53.5433 24.6408 53.5433 24.7493C53.5511 25.3537 53.7153 25.9503 53.598 26.5625C53.5511 26.8027 53.5746 27.0662 53.5902 27.3141C53.598 27.5853 53.5198 27.841 53.4729 28.1045C53.379 28.6236 53.3165 29.1428 53.3634 29.6775C53.4025 30.1036 53.2852 30.5143 53.1287 30.9095C52.722 31.9788 52.0807 32.8854 51.2203 33.6448C50.8527 33.9702 50.4069 34.1795 49.9142 34.2414C49.3823 34.3034 48.9209 33.8695 48.827 33.2806C48.7723 32.9319 48.7801 32.5832 48.7645 32.2345C48.7332 31.3357 48.7332 30.4368 48.6315 29.5457C48.4985 28.3602 48.655 27.1901 48.6628 26.0046C48.6628 25.2607 48.7645 24.5013 49.1399 23.8272C49.2416 23.6412 49.3823 23.4863 49.5779 23.3933C49.8438 23.2616 50.0863 23.3933 50.1645 23.68C50.2505 24.0287 50.2114 24.3774 50.227 24.7261" fill="white"/>
<path d="M87.8637 27.9727C87.5586 28.0115 87.41 27.8875 87.2927 27.5853C87.0894 27.0739 86.8156 26.5857 86.5028 26.1285C86.1821 25.6481 86.1586 25.5009 85.5329 25.6559C85.2123 25.7333 84.4067 25.6791 84.0469 25.6559C83.9217 25.6869 83.5776 25.5706 83.296 25.4466C82.905 25.2607 82.9832 24.2688 83.296 24.0984C83.6949 23.7264 83.7497 23.9356 84.6022 23.9744C85.353 24.0984 86.2134 24.0984 86.8704 24.0209C87.7776 23.9124 88.7162 23.9434 89.6157 23.7807C90.038 23.7032 90.8592 23.5172 91.3363 23.463C92.7755 23.122 93.3386 22.7733 94.4571 22.1457C95.1062 21.7815 95.7397 21.3786 96.3342 20.9292C96.4593 20.8362 96.5923 20.7819 96.7487 20.7974C96.8895 20.8129 96.999 20.8827 96.9912 21.0144C96.9833 21.3786 97.0146 21.735 96.7956 22.0915C96.6079 22.4014 96.4202 22.7114 96.209 23.0136C95.9353 23.4087 95.5208 23.6102 95.1453 23.8582C94.1989 24.4858 92.838 24.8577 91.7352 25.0747C91 25.2219 90.5542 25.2839 89.7955 25.2839C89.5218 25.2839 89.2324 25.3149 88.9587 25.3304C88.7006 25.3459 88.638 25.4621 88.7944 25.6791C89.2402 26.3145 89.0525 27.4845 88.3173 27.872C88.1687 27.9495 88.0279 27.996 87.8637 27.9805" fill="white"/>
<path d="M82.6869 21.1462C82.6244 21.5647 82.5853 22.0606 82.4758 22.541C82.4132 22.8044 82.4836 23.0602 82.4523 23.3236C82.3272 24.3464 82.3897 25.3848 82.4523 26.4076C82.4836 27.0197 82.5305 27.6396 82.5696 28.2518C82.6322 29.0964 82.5931 29.9565 82.8355 30.7856C82.8747 30.9018 82.8043 30.9716 82.7495 31.0491C82.5853 31.266 82.3428 31.4055 82.116 31.545C81.9752 31.6302 81.8109 31.5837 81.7249 31.4287C81.5607 31.1498 81.4042 30.8786 81.3026 30.5609C81.0757 29.8635 80.8959 29.1661 80.7785 28.4455C80.7003 27.9883 80.6143 27.5311 80.5595 27.074C80.5361 26.857 80.4344 26.826 80.2545 26.888C79.7461 27.0585 79.2925 27.3607 78.7997 27.5621C78.5025 27.6861 78.2288 27.8101 77.9003 27.8333C77.6656 27.8488 77.4623 27.9961 77.1964 27.8333C76.907 27.6629 76.6176 27.5002 76.3673 27.2599C76.1092 27.012 76.3204 26.7873 76.383 26.5548C76.4377 26.3611 76.5941 26.2914 76.7818 26.3146C76.9539 26.3301 77.0869 26.2604 77.2355 26.1829C77.7126 25.9272 78.2522 25.8962 78.7606 25.7799C79.2299 25.6715 79.7227 25.5785 80.2154 25.5862C80.4266 25.5862 80.4344 25.4622 80.4344 25.3073C80.4657 24.2689 80.6143 23.2539 80.9819 22.2853C81.1931 21.7429 81.4825 21.247 81.9048 20.8285C81.9439 20.7898 81.9752 20.7433 82.0143 20.7278C82.1786 20.6426 82.3428 20.5031 82.5462 20.5961C82.7417 20.6891 82.6791 20.8905 82.6869 21.123" fill="white"/>
<path d="M60.5508 31.1498C60.5821 28.8871 60.981 26.6943 61.8569 24.5944C62.0055 24.2379 62.162 23.8892 62.3966 23.5793C62.6938 23.1764 63.3039 23.1221 63.4447 23.5096C63.5385 23.7575 63.4838 24.0442 63.4603 24.3154C63.3821 25.2685 63.0614 26.1751 62.8737 27.1127C62.8346 27.3064 62.8424 27.5079 62.991 27.6706C63.5151 28.2595 63.9296 28.9336 64.4927 29.4915C64.7899 29.786 65.0559 30.1037 65.4391 30.2897C65.5251 30.3361 65.619 30.3671 65.7207 30.3749C66.057 30.4136 66.143 30.5996 65.924 30.8631C65.3609 31.514 64.7274 31.7309 63.8279 31.173C63.429 30.925 63.0927 30.5996 62.7251 30.3052C62.5374 30.1579 62.467 30.1502 62.4357 30.4214C62.3653 30.956 62.3497 31.4985 62.115 32.0021C61.943 32.3586 61.5988 32.5445 61.3329 32.808C61.2156 32.932 61.0357 32.839 60.9262 32.684C60.6525 32.3043 60.629 31.8549 60.5586 31.421C60.543 31.3357 60.5586 31.2427 60.5586 31.1498" fill="white"/>
<path d="M56.2189 22.7656C56.7117 22.8044 57.2044 22.6726 57.6971 22.6959C58.0178 22.7114 57.9865 22.4324 57.9787 22.2465C57.9787 21.8203 58.0256 21.4174 58.2446 21.0454C58.5106 20.5805 59.0502 20.4023 59.4413 20.9834C59.5664 21.1772 59.6759 21.3941 59.6759 21.6111C59.6759 21.9908 59.7541 22.3627 59.7463 22.7424C59.7463 23.4398 59.8089 24.1372 59.7463 24.8268C59.6681 25.7024 59.5899 26.578 59.1754 27.3761C59.0815 27.5543 58.9877 27.7325 58.8234 27.8488C58.6122 28.0037 58.4871 27.965 58.4089 27.7093C58.3541 27.5388 58.315 27.3684 58.2916 27.1901C58.2446 26.8647 58.1195 26.7717 57.7988 26.8802C57.5642 26.9577 57.3295 27.0352 57.1027 27.1436C56.7742 27.2986 56.4144 27.3606 56.0625 27.3839C55.5697 27.4148 55.077 27.4846 54.5843 27.4536C54.1463 27.4303 53.9429 27.1436 54.1384 26.7562C54.3418 26.3455 54.639 26.0821 55.1552 26.0511C55.9608 26.0046 56.7586 25.8806 57.5564 25.7334C57.6189 25.7256 57.6737 25.7101 57.7362 25.7024C58.1351 25.6791 58.1977 25.5862 58.1195 25.1755C58.0647 24.8888 58.1195 24.6021 58.0491 24.3154C57.9865 24.0519 57.9318 23.9899 57.6502 24.0597C56.7742 24.2611 55.8904 24.3541 54.991 24.3154C54.7016 24.2999 54.42 24.2534 54.1384 24.1914C53.7004 24.0984 53.5675 23.618 53.8882 23.2228C54.0993 22.9671 54.3418 22.7501 54.7329 22.8044C55.2256 22.8664 55.7183 22.7036 56.2111 22.7501" fill="white"/>
<path d="M55.8906 36.1011C55.038 36.1011 54.4671 35.706 54.342 35.0706C54.2012 34.3344 54.3341 33.6293 54.7252 32.9939C55.0928 32.3973 55.523 31.8471 56.1565 31.4984C56.571 31.2737 57.0403 31.1497 57.4235 30.8553C57.5018 30.7933 57.6191 30.77 57.666 30.6926C57.7755 30.5066 57.9007 30.2819 57.7755 30.0804C57.6738 29.9099 57.4705 30.0107 57.3062 30.0572C57.0012 30.1424 56.6883 30.2044 56.3911 30.3129C55.8358 30.5066 55.2649 30.4911 54.6939 30.4756C54.4514 30.4756 54.2872 30.2896 54.2324 30.0649C54.1621 29.7782 54.3107 29.538 54.5375 29.3598C54.8034 29.1506 55.1084 29.0111 55.4526 28.9723C56.0939 28.8949 56.7118 28.6856 57.3453 28.5694C57.8146 28.4842 58.2917 28.4532 58.7532 28.6547C59.3476 28.9181 59.4962 29.1428 59.3945 29.7627C59.2928 30.3594 59.113 30.9483 58.7688 31.4442C58.5498 31.7696 58.1744 31.9943 57.799 32.1571C57.4627 32.3043 57.1263 32.4438 56.7978 32.6142C56.3599 32.8389 56.1721 33.2109 56.1174 33.6603C56.0861 33.9083 55.9766 34.1562 56.1096 34.4197C56.1878 34.5747 56.266 34.6366 56.4537 34.5901C57.1733 34.4042 57.8537 34.1407 58.4169 33.6526C58.4794 33.5983 58.5498 33.5596 58.6124 33.5208C58.6828 33.4821 58.7454 33.4821 58.8079 33.5363C58.8705 33.5983 58.8705 33.6603 58.8236 33.73C58.4716 34.2027 58.2291 34.7606 57.7364 35.1248C57.4939 35.303 57.2749 35.5045 57.0481 35.6982C56.6805 36.0159 56.2895 36.1244 55.8984 36.0856" fill="white"/>
<path d="M41.2404 26.5005C41.217 25.8728 41.2483 25.2529 41.4203 24.6408C41.5298 24.2378 41.7254 23.8737 41.9678 23.5327C42.1008 23.3467 42.3041 23.2615 42.5231 23.3235C42.75 23.3855 42.8673 23.5637 42.8751 23.7884C42.8829 24.0751 43.0393 24.1604 43.2974 24.1604C44.103 24.1604 44.9086 24.1294 45.7064 24.2766C45.8316 24.2998 45.9645 24.3153 46.0818 24.3541C46.4025 24.4626 46.4494 24.6563 46.293 24.9662C46.1757 25.1987 46.0505 25.3924 45.8081 25.5009C45.6595 25.5629 45.5343 25.6171 45.3545 25.5629C45.1746 25.5086 44.9634 25.5086 44.7835 25.5474C44.3299 25.6404 43.8762 25.5861 43.4226 25.6016C42.9298 25.6171 42.8751 25.6636 42.8751 26.1518C42.8751 26.5702 42.8751 26.9964 42.8751 27.4148C42.8751 27.6473 42.9768 27.6938 43.1801 27.624C43.6807 27.4458 44.1578 27.1901 44.6896 27.0894C44.9712 27.0351 45.2528 26.9809 45.5343 26.9344C45.6986 26.9111 45.8316 26.9809 45.9332 27.0971C46.0427 27.2211 45.9254 27.3218 45.8785 27.4226C45.6986 27.8177 45.4327 28.0812 44.9869 28.2129C44.5723 28.3369 44.1969 28.5771 43.8058 28.7631C43.3991 28.9568 42.9533 29.0343 42.5153 29.104C41.9913 29.1893 41.5611 28.7708 41.4203 28.3601C41.217 27.7557 41.217 27.1281 41.2326 26.5005" fill="white"/>
<path d="M66.2319 27.012C66.1458 25.8807 66.3883 24.7959 66.9045 23.773C67.0844 23.4166 67.2877 23.0601 67.6788 22.8897C67.8352 22.8199 67.9917 22.7192 68.1716 22.8509C68.3671 22.9982 68.4375 23.2229 68.3984 23.4243C68.3593 23.6026 68.3671 23.7808 68.3593 23.959C68.2419 25.8729 68.2107 27.7868 68.2341 29.7008C68.2341 29.9565 68.3906 30.2122 68.1872 30.4756C67.976 30.7469 67.6788 30.8863 67.3816 31.0258C67.2956 31.0645 67.2408 30.9793 67.1782 30.9173C66.7246 30.4756 66.5525 29.8945 66.4118 29.3056C66.2397 28.554 66.1849 27.7868 66.2319 27.012Z" fill="white"/>
<path d="M46.9198 29.5845C47.217 29.6 47.522 29.538 47.8192 29.6465C48.0304 29.7317 48.1165 29.8557 47.9991 30.0804C47.8662 30.3361 47.6785 30.5608 47.4829 30.77C47.3578 30.9018 47.1935 30.987 46.9511 30.925C46.4036 30.7855 45.8796 31.0025 45.3634 31.142C44.6751 31.3357 43.979 31.4907 43.2829 31.6456C42.3678 31.8549 41.4214 31.8626 40.5063 32.0486C40.3186 32.0873 40.1152 32.0796 40.0136 31.8626C39.8963 31.6069 39.9432 31.3667 40.1231 31.1497C40.4203 30.7933 40.8505 30.6771 41.2728 30.5608C42.6024 30.2044 43.9477 29.9254 45.3008 29.724C45.8326 29.6465 46.3723 29.5457 46.9198 29.5922" fill="white"/>
<path d="M45.5995 32.5368C46.1157 32.56 46.5537 32.591 46.89 32.9707C47.0699 33.1722 47.1169 33.3582 47.0934 33.6294C47.0465 34.3887 46.7805 35.0706 46.4599 35.737C46.2878 36.1012 46.0453 36.4266 45.8185 36.7676C45.7168 36.9226 45.5291 37.0388 45.3571 36.9845C45.1694 36.9303 45.1302 36.7366 45.1224 36.5429C45.1146 36.047 45.3649 35.613 45.4587 35.1404C45.5135 34.8537 45.6543 34.5902 45.6856 34.288C45.7247 33.9471 45.5761 33.7611 45.2319 33.8076C44.4029 33.9083 43.5894 34.0943 42.7838 34.3035C42.6431 34.3422 42.4945 34.412 42.4006 34.288C42.2833 34.1408 42.2911 33.9548 42.3771 33.7766C42.6118 33.2807 43.0341 33.025 43.5347 32.87C44.223 32.6685 44.9425 32.591 45.5917 32.5291" fill="white"/>
<path d="M86.3167 21.4717C86.3245 21.6344 86.2698 21.8126 86.4418 21.9134C86.567 21.9908 86.6765 21.9289 86.7782 21.8669C86.9268 21.7816 87.0128 21.6189 87.0988 21.4794C87.2161 21.2702 87.0128 20.9138 86.739 20.8208C86.4262 20.7123 86.4106 20.9525 86.348 21.154C86.3089 21.2625 86.3323 21.3709 86.3245 21.4717M88.3424 20.6116C88.4597 21.1075 88.1 21.4562 87.8027 21.8359C87.4508 22.2853 87.0441 22.6882 86.5357 22.9594C86.2072 23.1376 85.8474 23.3081 85.4564 23.1686C85.0184 23.0137 84.7603 22.4403 84.8619 21.9289C85.0184 21.1307 85.4329 20.4566 85.9256 19.8367C86.1524 19.55 86.4966 19.5035 86.8642 19.4493C87.3569 19.3795 87.7089 19.5655 88.0843 19.8057C88.3659 19.9917 88.3581 20.2706 88.3346 20.6116" fill="white"/>
<path d="M43.4854 21.0764C44.6273 21.1771 45.777 21.4406 46.8173 22.0992C47.0284 22.231 47.0676 22.4092 46.9893 22.6417C46.9189 22.8509 46.7782 22.9981 46.6374 23.1531C46.5357 23.2615 46.4027 23.277 46.2463 23.2151C45.6597 22.9593 45.0575 22.7734 44.4239 22.6804C44.0407 22.6262 43.6496 22.5874 43.2664 22.5254C43.0161 22.4789 42.758 22.4247 42.6016 22.1767C42.3278 21.7506 42.6641 21.1074 43.1804 21.0842C43.2586 21.0842 43.3446 21.0842 43.4854 21.0842" fill="white"/>
<path d="M12.046 18.961C10.5365 18.899 9.33983 18.899 8.15098 18.7905C7.04818 18.682 5.92191 18.6588 4.84257 18.3876C3.63026 18.0854 2.4336 17.698 1.40901 16.9851C0.798945 16.5589 0.204524 16.0397 0.024634 15.2106C-0.131792 14.4745 0.478271 13.6376 1.24476 13.5602C1.72186 13.5059 1.99561 13.9321 2.27717 14.273C2.66824 14.7457 3.0202 15.2726 3.63026 15.5206C4.06043 15.6988 4.51407 15.7918 4.96771 15.8228C5.48391 15.8538 6.00012 15.9158 6.49287 16.0397C6.93868 16.1482 7.3845 16.125 7.83031 16.156C8.71412 16.2335 9.59793 16.2412 10.4896 16.2335C11.0996 16.2335 11.7097 16.1327 12.3197 16.1095C13.4382 16.063 14.5645 16.0475 15.6751 15.8925C15.8941 15.8615 16.0818 15.7918 16.1678 15.5438C16.3555 15.0092 16.8092 14.6605 17.169 14.2498C18.1075 13.1805 19.0383 12.1189 19.6014 10.8016C19.6953 10.5692 19.9377 10.3057 19.7578 10.1042C19.5936 9.92602 19.2964 10.1275 19.0695 10.1972C18.3265 10.4064 17.607 10.7009 16.8405 10.8481C16.4807 10.9179 16.1287 10.9489 15.7846 10.8326C15.0494 10.5924 14.2751 10.4142 13.6024 10.0578C12.4605 9.4456 12.132 8.56225 12.4996 7.14424C12.7265 6.26089 13.1488 5.47053 13.7667 4.79639C14.0326 4.50194 14.3689 4.26173 14.7444 4.1145C15.4013 3.8588 16.0114 4.27723 16.1678 5.0056C16.3712 5.95869 16.2382 6.87304 15.941 7.77964C15.8941 7.92686 15.8237 8.07409 15.9332 8.19806C16.0583 8.35304 16.2148 8.22906 16.3477 8.19032C16.9891 7.9966 17.6226 7.75639 18.2718 7.60916C19.0148 7.44644 19.75 7.19848 20.5165 7.16749C21.0405 7.15199 21.588 7.22173 22.0338 7.53943C22.6674 7.98885 23.2383 8.53126 23.5903 9.22089C23.9266 9.90278 23.8406 10.6157 23.6059 11.344C23.2618 12.4056 22.5579 13.227 21.8774 14.0638C21.8305 14.1258 21.7914 14.1956 21.7366 14.2575C21.6584 14.3505 21.5254 14.4745 21.588 14.5752C21.6584 14.6992 21.8539 14.6605 21.9713 14.6217C22.4562 14.4668 22.9489 14.3195 23.4182 14.1181C24.083 13.8314 24.9512 14.3505 24.9746 15.0712C24.9746 15.2416 25.0294 15.5051 24.9355 15.5671C24.654 15.7685 24.4819 16.1095 24.1378 16.2257C23.6607 16.3807 23.207 16.5821 22.7456 16.7836C22.0025 17.1013 21.2204 17.3105 20.4383 17.512C19.5466 17.7367 18.6785 18.0776 17.7634 18.2016C17.1611 18.2869 16.5589 18.3411 15.9567 18.4496C15.284 18.5658 14.6114 18.713 13.9309 18.775C13.1957 18.8448 12.4684 18.992 12.0382 18.9532" fill="white"/>
<path d="M34.7717 3.00653C34.7638 4.43229 34.8968 5.76507 35.0376 7.09784C35.1236 7.9502 35.2879 8.7948 35.2722 9.65491C35.2722 9.95711 35.327 10.2671 35.3348 10.577C35.3348 10.887 35.4599 10.9644 35.7571 10.8637C36.3046 10.6777 36.8678 10.515 37.4074 10.3058C37.6108 10.2283 37.6968 10.1121 37.7516 9.93386C37.7672 9.87187 37.7829 9.80213 37.7829 9.7324C37.7594 8.48486 37.9315 7.24507 37.8376 6.00528C37.8063 5.55585 37.8376 5.09093 37.7203 4.64151C37.6264 4.24632 38.0253 3.57994 38.4164 3.44821C38.6823 3.36297 38.8857 3.52569 39.0577 3.68842C39.5818 4.19208 39.8321 4.84297 39.9337 5.53261C40.0511 6.26873 40.0198 7.02035 40.1058 7.75648C40.2075 8.62433 40.0902 9.47669 40.0667 10.329C40.0354 11.4294 39.9259 12.5219 39.6131 13.599C39.4488 14.1491 39.1281 14.5133 38.6667 14.7923C38.5415 14.8698 38.432 14.9783 38.3069 15.0557C38.0253 15.2262 37.7047 15.327 37.5013 14.862C37.3214 14.4359 37.3371 13.9942 37.3918 13.5525C37.4309 13.2271 37.47 12.9016 37.5013 12.5684C37.5169 12.3515 37.4466 12.243 37.1884 12.336C36.6722 12.5142 36.156 12.6924 35.6164 12.7854C35.4287 12.8164 35.3192 12.9636 35.3348 13.1573C35.4052 14.0252 35.2331 14.8775 35.1862 15.7299C35.1471 16.3885 35.0063 17.0317 34.9281 17.6903C34.9046 17.884 34.9046 18.0855 34.9203 18.2792C34.9359 18.5737 34.8499 18.8061 34.5683 18.9146C34.1225 19.0851 33.7627 19.4183 33.2778 19.5345C32.9649 19.6042 32.8398 19.488 32.7616 19.2555C32.699 19.0773 32.6912 18.8836 32.6834 18.6821C32.6443 17.4811 32.7068 16.2878 32.7772 15.0945C32.8242 14.2421 32.8163 13.3898 32.8242 12.5452C32.8398 11.3054 32.8633 10.0656 32.8242 8.8258C32.785 7.79522 32.7381 6.76465 32.6834 5.73407C32.6286 4.68025 32.7303 3.64192 32.8242 2.59585C32.8711 2.03795 32.8945 1.48004 32.9649 0.922134C33.0119 0.565695 33.2309 0.317736 33.4968 0.108522C33.7236 -0.0696982 33.9582 0.0232861 34.1538 0.193757C34.537 0.5347 34.6074 1.02287 34.7169 1.48004C34.8421 2.0147 34.7717 2.55711 34.7873 3.00653" fill="white"/>
<path d="M62.4904 10.2438C62.553 11.0419 62.4357 12.0647 62.334 13.0953C62.2871 13.599 62.201 14.1104 62.0446 14.5986C61.9899 14.7613 61.896 14.9162 61.9273 15.0867C62.029 15.6524 61.7318 16.0476 61.3642 16.4117C61.1999 16.5745 61.0982 16.7914 60.8479 16.8844C60.5429 17.0006 60.3708 16.8999 60.2614 16.652C60.0736 16.2413 60.0736 15.8073 60.1362 15.3734C60.277 14.4591 60.4569 13.5602 60.4647 12.6304C60.4647 12.4909 60.4647 12.3592 60.5195 12.2275C60.5742 12.0957 60.5351 11.9408 60.4334 11.84C60.3239 11.7315 60.191 11.8245 60.0815 11.8788C59.6044 12.1035 59.1585 12.3747 58.6502 12.5219C58.4468 12.5839 58.3373 12.7234 58.3529 12.9636C58.3921 13.413 58.4155 13.8547 58.4233 14.3041C58.4312 15.0712 58.306 15.8306 58.2669 16.59C58.2356 17.1711 57.9932 17.6748 57.9541 18.2249C57.915 18.7983 57.4535 18.9611 57.0781 19.1548C56.7261 19.3407 56.3038 19.4105 55.8971 19.488C55.3652 19.5887 54.9194 18.9998 55.0836 18.3877C55.2479 17.7833 55.3887 17.1556 55.3887 16.5512C55.3887 15.5129 55.5686 14.4746 55.3652 13.4285C55.2166 12.6691 55.2088 11.8865 55.1384 11.1194C55.0211 9.85635 54.9037 8.60106 54.7942 7.33803C54.7551 6.88086 54.7317 6.42368 54.7239 5.96651C54.7239 5.44735 54.5909 4.93593 54.6535 4.42452C54.7082 3.96735 54.7004 3.49468 54.9272 3.0685C55.1071 2.73531 55.3496 2.47185 55.7328 2.4641C56.1317 2.4486 56.3742 2.73531 56.5462 3.06075C56.8121 3.56442 56.8982 4.13007 57.0233 4.68023C57.2423 5.68756 57.3596 6.71038 57.6021 7.70997C57.7585 8.3686 57.8367 9.05049 57.9306 9.72463C57.9619 9.94934 58.0245 10.1663 58.0948 10.3833C58.1652 10.6235 58.3921 10.6002 58.5641 10.5537C59.1116 10.4143 59.6591 10.236 60.2066 10.0811C60.4412 10.0191 60.4725 9.8641 60.4647 9.66264C60.4178 8.85677 60.582 8.07415 60.7463 7.29154C60.8323 6.8886 61.1139 6.6329 61.4502 6.43918C61.6144 6.3462 61.7943 6.36169 61.9586 6.51667C62.3262 6.85761 62.3496 7.32253 62.42 7.76421C62.5374 8.50808 62.4826 9.2597 62.4982 10.2438" fill="white"/>
<path d="M51.5049 8.93428C51.5049 8.57009 51.5127 8.25239 51.5049 7.94245C51.4971 7.648 51.3172 7.53951 51.02 7.6015C50.6915 7.67124 50.4021 7.82622 50.0814 7.91145C49.7998 7.98894 49.6825 8.14391 49.6825 8.45386C49.6825 9.65491 49.792 10.856 49.878 12.0493C49.9719 13.2813 49.9406 14.5211 49.9641 15.7531C49.9641 16.0863 49.9563 16.4195 49.9641 16.7605C49.9797 17.1401 50.1283 17.2331 50.4568 17.0704C50.6758 16.9697 50.887 16.8534 51.0903 16.7295C51.1998 16.6675 51.3015 16.59 51.2937 16.435C51.2468 15.5749 51.4423 14.7303 51.4501 13.8624C51.4579 13.0023 51.3641 12.15 51.411 11.2899C51.458 10.4918 51.544 9.6859 51.5049 8.93428ZM47.0467 14.7535C46.9294 13.723 46.9842 12.5839 46.945 11.4449C46.9294 11.0574 46.9529 10.67 46.945 10.2903C46.9059 9.29847 46.9216 8.31438 46.8825 7.32255C46.8668 6.81889 46.7573 6.31522 46.8121 5.80381C46.8747 5.26915 47.0624 4.81197 47.4769 4.46328C47.8054 4.19208 48.3842 4.3548 48.6345 4.81197C48.7987 5.11417 48.9629 5.40862 49.0724 5.73407C49.1976 6.10601 49.3462 6.17574 49.7138 6.04402C50.4412 5.78831 51.2077 5.71082 51.9585 5.78831C52.7798 5.87355 53.1865 6.18349 53.3976 7.23732C53.5697 8.08967 53.4993 8.93428 53.4759 9.79438C53.4289 11.2511 53.4758 12.7001 53.4602 14.1569C53.4602 14.5753 53.4211 15.0015 53.3507 15.4122C53.2412 16.0088 52.7563 16.4195 52.506 16.9464C52.4747 17.0162 52.373 17.0859 52.3809 17.1479C52.4904 17.8143 51.9038 17.977 51.5205 18.225C50.8479 18.6589 50.1518 19.0928 49.3149 19.1935C48.6032 19.2788 47.9618 19.1703 47.4847 18.5891C47.2344 18.2869 47.1797 17.8918 47.1875 17.5353C47.1953 16.6365 46.9607 15.7609 47.0467 14.7535Z" fill="white"/>
<path d="M75.9356 7.31474V6.98154C75.9356 6.51662 75.8574 6.45463 75.3959 6.61736C74.2071 7.03579 72.9713 7.15976 71.7199 7.15202C71.3679 7.15202 71.0238 7.07453 70.6875 6.95055C69.9679 6.69484 69.9601 6.02071 70.4763 5.54029C70.797 5.24584 71.2193 5.18385 71.6495 5.24584C72.2752 5.33882 72.9009 5.30008 73.5266 5.25359C74.1523 5.20709 74.7702 5.11411 75.3959 5.09086C75.9512 5.06762 76.0138 4.96688 76.092 4.43222C76.2328 3.46364 76.2484 2.44856 76.8663 1.60395C77.0775 1.3095 77.32 1.06929 77.6954 1.13128C78.0708 1.19327 78.3367 1.54971 78.3915 1.97589C78.4697 2.54929 78.5948 3.13045 78.6027 3.70385C78.6105 4.47097 78.5245 5.23809 78.4932 6.00521C78.4775 6.3849 78.4384 6.77233 78.4853 7.14427C78.6027 8.11285 78.5792 9.06594 78.4071 10.019C78.3993 10.081 78.3993 10.143 78.4071 10.205C78.4775 11.3363 77.711 11.8942 76.8898 12.4211C76.6864 12.5529 76.5613 12.4211 76.4753 12.2584C76.2719 11.8942 76.1702 11.499 76.0998 11.0884C76.0529 10.8249 76.0373 10.5614 76.0216 10.2902C76.0138 10.0423 75.8808 9.95704 75.6618 10.0345C75.2004 10.1895 74.7389 10.329 74.2931 10.5149C73.292 10.9334 72.2752 11.2201 71.1802 11.2123C70.6406 11.2123 70.1556 11.0109 69.7098 10.7397C69.3344 10.5149 69.264 10.1043 69.4987 9.72458C69.7724 9.27516 70.0852 8.97296 70.7188 9.12018C71.2897 9.25191 71.8842 9.0272 72.4629 8.92647C73.4797 8.74825 74.473 8.44605 75.482 8.23683C75.8417 8.15935 76.0216 7.98113 75.9512 7.60144C75.9356 7.50846 75.9512 7.40772 75.9512 7.30699" fill="white"/>
<path d="M66.0268 4.34706C66.8246 4.29282 67.5911 4.41679 68.295 4.80423C68.6235 4.98245 68.8425 5.2459 69.0068 5.57135C69.1319 5.81931 69.0068 6.05177 68.8894 6.24549C68.4827 6.90413 68.209 7.6325 67.8492 8.31439C67.5364 8.91878 67.1296 9.46119 66.6916 9.98036C66.2615 10.484 66.1129 11.0729 66.0034 11.7006C65.9252 12.1887 65.9408 12.6769 65.933 13.1651C65.933 13.413 66.0034 13.6377 66.0738 13.8702C66.1676 14.1801 66.3006 14.1259 66.4648 13.9244C67.114 13.1341 67.8414 12.4212 68.7017 11.8633C68.7408 11.84 68.7878 11.809 68.8269 11.7858C68.952 11.7083 69.0928 11.6851 69.2023 11.7858C69.3431 11.9098 69.2179 12.026 69.1475 12.1345C68.5453 12.9868 67.9352 13.8315 67.333 14.6761C67.2235 14.831 67.1296 15.0093 67.0358 15.1797C66.6604 15.8694 66.0659 16.249 65.2838 16.311C64.8067 16.3498 64.048 15.7066 64.0089 15.2262C63.876 13.7385 63.962 12.2662 64.5564 10.8715C64.7989 10.2981 65.1743 9.77889 65.6514 9.38371C66.1207 8.99627 66.4257 8.5081 66.6995 7.99669C66.9185 7.59376 67.1375 7.19083 67.3017 6.7569C67.4112 6.4702 67.3017 6.32297 67.0671 6.24549C66.4257 6.03627 65.7844 5.8813 65.0883 6.02077C64.6816 6.09826 64.267 6.12151 63.8525 6.1835C63.524 6.22999 63.2503 5.83481 63.3363 5.49386C63.4693 4.9747 64.0872 4.47104 64.6894 4.42454C64.9084 4.40905 65.1196 4.31606 65.3464 4.33931C65.5654 4.36255 65.7922 4.33931 66.019 4.33931" fill="white"/>
<path d="M76.3434 13.8779C77.0082 13.8702 77.6339 13.8934 78.1736 14.2809C78.5568 14.5598 78.8306 15.2262 78.7524 15.6756C78.4864 17.2254 77.587 18.4342 76.6719 19.643C76.578 19.767 76.406 19.8212 76.2886 19.8134C75.7881 19.7902 75.3501 20.0072 74.8964 20.1389C74.6305 20.2086 74.3959 19.7824 74.4506 19.4183C74.5679 18.7286 74.9903 18.1862 75.3266 17.6051C75.6082 17.1246 75.8741 16.6365 76.1244 16.1406C76.2965 15.7919 76.187 15.6524 75.7959 15.6524C75.0607 15.6446 74.3333 15.7996 73.6059 15.8616C72.8707 15.9236 72.1512 16.0243 71.4316 16.1716C71.0953 16.2413 70.759 16.2645 70.4305 16.3653C70.2428 16.4273 70.0238 16.4428 69.8517 16.249C69.6874 16.0631 69.7422 15.8849 69.7969 15.6756C69.9768 15.0248 70.5243 14.8543 71.064 14.6993C72.2685 14.3506 73.5121 14.1491 74.7635 14.0174C75.3031 13.9632 75.835 13.8624 76.3356 13.8779" fill="white"/>
<path d="M21.4993 3.54892C21.1708 3.57216 20.858 3.53342 20.5451 3.43269C20.42 3.39394 20.2948 3.44818 20.1775 3.45593C19.4345 3.47918 18.6915 3.52567 17.9484 3.43269C17.2211 3.34745 16.4937 3.26996 15.8054 2.99876C15.5317 2.89028 15.2501 2.79729 14.9607 2.71206C14.554 2.59583 14.249 2.34787 14.2099 1.92944C14.1707 1.52651 14.5462 1.36379 14.8356 1.19331C15.0624 1.06159 15.3205 1.0151 15.5864 0.9841C16.1808 0.922111 16.7909 0.844624 17.3775 0.86787C18.4177 0.898865 19.4736 0.860121 20.4669 1.2553C21.1943 1.54975 21.8435 1.99143 22.4692 2.4486C22.6412 2.57258 22.782 2.78955 22.7116 3.02201C22.6412 3.23897 22.4692 3.39394 22.2423 3.47918C21.9921 3.56441 21.7418 3.54117 21.4915 3.54117" fill="white"/>
<path d="M21.1663 22.0218C21.2289 22.0915 21.135 22.3008 21.3071 22.3937C21.4948 22.4867 21.6043 22.3395 21.7138 22.2233C21.7763 22.1535 21.8467 22.0915 21.9093 22.0296C22.2534 21.6731 22.3004 21.0842 22.011 20.689C21.925 20.5651 21.7998 20.4256 21.659 20.4333C21.5104 20.4333 21.4322 20.6115 21.3775 20.751C21.2289 21.1462 21.2132 21.5646 21.1585 22.0296M19.1953 22.2078C19.2735 21.5491 19.6802 20.5651 20.3998 19.6972C20.8847 19.1083 21.4713 18.8526 22.2222 18.8758C22.5741 18.8836 22.8322 19.0618 23.0982 19.2323C23.6691 19.6042 24.068 20.6968 23.8568 21.2934C23.8255 21.3864 23.7708 21.4794 23.7082 21.5569C23.2233 22.138 22.7149 22.7037 22.1283 23.1841C21.5417 23.6645 20.8534 23.9512 20.0791 23.9357C19.5707 23.928 19.1327 23.5793 19.2031 22.2078" fill="white"/>
<path d="M28.7593 13.6997C28.6889 13.5525 28.6967 13.3123 28.4777 13.2735C28.2587 13.227 28.2509 13.4517 28.1962 13.5912C28.0554 13.9399 28.0319 14.3118 27.9381 14.676C27.9146 14.7768 27.9772 14.862 28.0319 14.9162C28.0945 14.9627 28.1571 14.8775 28.1962 14.831C28.4543 14.4978 28.6733 14.1414 28.7593 13.7074M26.1626 15.6524C26.3112 14.3816 26.6241 13.165 27.4766 12.15C28.1883 11.3054 29.4632 11.7005 29.9481 12.3514C30.4956 13.0953 30.4643 14.0096 29.6118 14.6915C29.299 14.9395 28.9861 15.2029 28.7515 15.5671C28.3761 16.1405 27.9146 16.6519 27.1794 16.8224C26.804 16.9077 26.5693 16.8379 26.3738 16.5047C26.2174 16.2413 26.1313 15.9623 26.1626 15.6524Z" fill="white"/>
<path d="M27.2793 6.36943C27.3731 4.99791 27.7798 3.75037 28.8201 2.77404C29.0782 2.52608 29.3832 2.30912 29.7743 2.4021C30.2279 2.51058 30.4 2.99875 30.2592 3.58765C30.1028 4.26179 29.8055 4.88168 29.5318 5.51707C29.3128 6.02849 29.1877 6.56315 29.0391 7.09781C28.9374 7.47749 28.7184 7.7487 28.4446 7.98891C28.1005 8.28336 27.5765 8.04315 27.4279 7.52399C27.3262 7.15205 27.2089 6.78011 27.2714 6.37718" fill="white"/>
<path d="M37.4628 18.8603C37.541 18.8603 37.6192 18.7286 37.6348 18.7131C37.8695 18.5039 37.9242 18.3412 37.9712 18.0467C37.9946 17.8995 37.8617 17.7058 37.627 17.698C37.3924 17.698 37.3846 17.853 37.3689 18.0157C37.3533 18.1862 37.3846 18.3489 37.3142 18.5194C37.2594 18.6511 37.3611 18.8603 37.4706 18.8603M35.8359 19.302C35.8907 18.5039 36.2348 17.7368 36.6963 16.9851C37.017 16.466 37.3924 16.1948 38.0025 16.2335C38.5734 16.2722 39.3555 16.8689 39.5589 17.3803C39.6371 17.574 39.5745 17.729 39.5198 17.8685C39.0974 18.9843 38.4013 19.8676 37.2281 20.2783C36.9935 20.3636 36.7354 20.3868 36.4851 20.3868C36.1253 20.3868 35.8751 20.0691 35.8281 19.6274C35.8281 19.5499 35.8281 19.4647 35.8281 19.302" fill="white"/>
<path d="M29.9332 10.6234C29.636 10.546 29.2449 10.5615 28.8538 10.5537C27.97 10.5227 27.1175 10.7087 26.2728 10.9179C25.9912 10.9876 25.7331 10.9334 25.5689 10.7242C25.3812 10.4917 25.4672 10.2205 25.608 9.98805C25.9286 9.46889 26.3432 9.18993 27.0315 9.28292C27.3834 9.32941 27.7823 9.25967 28.1655 9.21318C28.8929 9.12019 29.6203 9.11244 30.3164 9.3914C30.598 9.49988 30.8952 9.6626 30.8561 10.0423C30.8248 10.36 30.4337 10.6234 29.9332 10.6234Z" fill="white"/>
<path d="M43.47 12.7698C42.8678 12.7698 42.3359 12.2429 42.3359 11.6617C42.3359 11.2201 42.9616 10.6157 43.5404 10.6079C44.2287 10.6079 44.6041 11.2278 44.6354 11.7702C44.6745 12.3669 44.1739 12.7698 43.4778 12.7698" fill="white"/>
</g>
<defs>
<clipPath id="clip0_1916_7424">
<rect width="97" height="37" fill="white"/>
</clipPath>
</defs>
</svg>
