<svg width="16" height="18" viewBox="0 0 16 18" fill="none" xmlns="http://www.w3.org/2000/svg">
<g id="Layer_1" clip-path="url(#clip0_1420_2962)">
<path id="Vector" d="M3.44262 18C2.6149 18 1.98584 17.7903 1.55543 17.3599C1.12502 16.9295 0.904297 16.3004 0.904297 15.4727V7.71429C0.904297 6.88657 1.12502 6.25751 1.55543 5.8271C1.98584 5.39669 2.6149 5.187 3.44262 5.187H5.89265V6.64378H3.54194C3.15568 6.64378 2.86874 6.7431 2.65905 6.94175C2.44936 7.1404 2.35004 7.43838 2.35004 7.83568V15.3292C2.35004 15.7265 2.44936 16.0245 2.65905 16.2232C2.86874 16.4218 3.15568 16.5212 3.54194 16.5212H12.4371C12.8123 16.5212 13.1103 16.4218 13.309 16.2232C13.5076 16.0245 13.618 15.7265 13.618 15.3292V7.83568C13.618 7.43838 13.5186 7.1404 13.309 6.94175C13.0993 6.7431 12.8123 6.64378 12.4371 6.64378H10.0864V5.187H12.5364C13.3641 5.187 14.0042 5.39669 14.4346 5.8271C14.8651 6.25751 15.0858 6.88657 15.0858 7.70325V15.4617C15.0858 16.2894 14.8651 16.9074 14.4346 17.3378C14.0042 17.7682 13.3752 17.9779 12.5364 17.9779H3.44262V18ZM8.00056 11.6542C7.81294 11.6542 7.6474 11.588 7.51497 11.4555C7.38253 11.3231 7.31631 11.1686 7.31631 10.981V2.95769L7.3715 1.7989L6.93005 2.32863L5.73814 3.58676C5.61674 3.71919 5.46224 3.78541 5.27462 3.78541C5.10908 3.78541 4.96561 3.73023 4.84421 3.61987C4.72281 3.5095 4.66763 3.36603 4.66763 3.20049C4.66763 3.1122 4.6897 3.03495 4.72281 2.96873C4.75592 2.90251 4.8111 2.8363 4.86628 2.77008L7.47082 0.242796C7.55911 0.154506 7.6474 0.0993256 7.72465 0.0551809C7.80191 0.0110362 7.90123 0 7.98952 0C8.07781 0 8.1661 0.0220724 8.25439 0.0551809C8.34268 0.0882894 8.41993 0.154506 8.50822 0.242796L11.1128 2.77008C11.179 2.8363 11.2231 2.90251 11.2562 2.96873C11.2893 3.03495 11.3004 3.1122 11.3004 3.20049C11.3004 3.36603 11.2452 3.5095 11.1238 3.61987C11.0024 3.73023 10.8589 3.78541 10.6934 3.78541C10.5168 3.78541 10.3623 3.71919 10.2409 3.58676L9.04899 2.32863L8.60755 1.7989L8.66273 2.95769V10.981C8.66273 11.1576 8.59651 11.3231 8.46408 11.4555C8.33164 11.588 8.1661 11.6542 7.97848 11.6542H8.00056Z" fill="black"/>
</g>
<defs>
<clipPath id="clip0_1420_2962">
<rect width="14.1925" height="18" fill="white" transform="translate(0.904297)"/>
</clipPath>
</defs>
</svg>
