<svg width="20" height="20" viewBox="0 0 20 20" fill="none" xmlns="http://www.w3.org/2000/svg">
<path d="M2 12.5312C2 11.6146 2.16146 10.7865 2.48438 10.0469C2.80729 9.30729 3.25 8.71875 3.8125 8.28125C4.375 7.84375 5.02083 7.625 5.75 7.625H6.9375C7.30729 7.16667 7.65625 6.72396 7.98438 6.29688C8.31771 5.86458 8.63021 5.4375 8.92188 5.01562C9.21875 4.59375 9.4974 4.17188 9.75781 3.75C10.0234 3.32292 10.2708 2.88802 10.5 2.44531C10.7604 1.9401 11.0443 1.57292 11.3516 1.34375C11.6641 1.11458 12.0286 1 12.4453 1C12.8203 1 13.1589 1.08854 13.4609 1.26562C13.763 1.4375 14 1.67969 14.1719 1.99219C14.3438 2.30469 14.4297 2.65625 14.4297 3.04688C14.4297 3.41667 14.3724 3.79427 14.2578 4.17969C14.1484 4.5651 14.0182 4.9375 13.8672 5.29688C13.7161 5.65104 13.5807 5.97135 13.4609 6.25781C13.3411 6.54427 13.2708 6.77604 13.25 6.95312C13.2396 7.01562 13.2526 7.0625 13.2891 7.09375C13.3255 7.11979 13.3724 7.13281 13.4297 7.13281H16.0625C16.474 7.13281 16.8438 7.22917 17.1719 7.42188C17.5 7.61458 17.7578 7.8776 17.9453 8.21094C18.138 8.53906 18.2344 8.90885 18.2344 9.32031C18.2344 9.79948 18.1302 10.2109 17.9219 10.5547C17.9948 10.6901 18.0495 10.8438 18.0859 11.0156C18.1224 11.1875 18.1406 11.3594 18.1406 11.5312C18.1406 11.8073 18.0964 12.0703 18.0078 12.3203C17.9193 12.5651 17.7943 12.7812 17.6328 12.9688C17.7266 13.2083 17.7734 13.4714 17.7734 13.7578C17.7734 14.4193 17.5156 14.9661 17 15.3984C17.0417 15.5391 17.0625 15.6823 17.0625 15.8281C17.0625 16.3385 16.8906 16.7891 16.5469 17.1797C16.2083 17.5703 15.7526 17.8333 15.1797 17.9688C14.9141 18.0365 14.5807 18.0859 14.1797 18.1172C13.7786 18.1484 13.3307 18.1641 12.8359 18.1641H11.8203C11.1901 18.1641 10.5859 18.099 10.0078 17.9688C9.4349 17.8385 8.89844 17.6484 8.39844 17.3984H6.02344C5.2526 17.3984 4.5625 17.1797 3.95312 16.7422C3.34896 16.3047 2.8724 15.7188 2.52344 14.9844C2.17448 14.25 2 13.4323 2 12.5312ZM6.88281 12.4531C6.88281 13.25 7.09115 13.9557 7.50781 14.5703C7.92448 15.1849 8.50521 15.6641 9.25 16.0078C10 16.3516 10.875 16.526 11.875 16.5312H12.6719C13.1615 16.5365 13.5781 16.526 13.9219 16.5C14.2656 16.474 14.5443 16.4349 14.7578 16.3828C14.9714 16.3307 15.1276 16.2552 15.2266 16.1562C15.3255 16.0573 15.375 15.9427 15.375 15.8125C15.375 15.75 15.3672 15.6901 15.3516 15.6328C15.3359 15.5807 15.2969 15.4818 15.2344 15.3359C15.1719 15.1797 15.1641 15.0156 15.2109 14.8438C15.2578 14.6719 15.3594 14.5417 15.5156 14.4531C15.8906 14.2552 16.0781 14.0156 16.0781 13.7344C16.0781 13.6406 16.0625 13.5547 16.0312 13.4766C16 13.3932 15.9531 13.2917 15.8906 13.1719C15.8021 12.9844 15.7786 12.7969 15.8203 12.6094C15.8672 12.4219 15.9714 12.2708 16.1328 12.1562C16.3724 11.9792 16.4922 11.7734 16.4922 11.5391C16.4922 11.4401 16.4714 11.3464 16.4297 11.2578C16.3932 11.1641 16.3333 11.0573 16.25 10.9375C16.1302 10.8125 16.0781 10.6562 16.0938 10.4688C16.1094 10.2812 16.1823 10.1224 16.3125 9.99219C16.5 9.79427 16.5938 9.58854 16.5938 9.375C16.5938 9.19792 16.5365 9.05469 16.4219 8.94531C16.3073 8.83073 16.1641 8.77344 15.9922 8.77344H13.3672C12.8359 8.77344 12.4036 8.63021 12.0703 8.34375C11.7422 8.05208 11.5781 7.67188 11.5781 7.20312C11.5781 6.89583 11.638 6.5625 11.7578 6.20312C11.8776 5.84375 12.0182 5.47917 12.1797 5.10938C12.3411 4.73958 12.4818 4.39062 12.6016 4.0625C12.7266 3.73438 12.7891 3.45312 12.7891 3.21875C12.7891 3.07812 12.7552 2.96875 12.6875 2.89062C12.6198 2.8125 12.5312 2.77344 12.4219 2.77344C12.3281 2.77344 12.2448 2.80469 12.1719 2.86719C12.099 2.92448 12.0182 3.04167 11.9297 3.21875C11.5599 3.95312 11.1562 4.64323 10.7188 5.28906C10.2812 5.92969 9.84115 6.53125 9.39844 7.09375C8.96094 7.65625 8.5599 8.1849 8.19531 8.67969C7.86719 9.11719 7.60677 9.52865 7.41406 9.91406C7.22656 10.2943 7.09115 10.6875 7.00781 11.0938C6.92448 11.4948 6.88281 11.9479 6.88281 12.4531ZM3.59375 12.5312C3.59375 13.1302 3.69531 13.6745 3.89844 14.1641C4.10156 14.6536 4.3724 15.0495 4.71094 15.3516C5.05469 15.6536 5.4349 15.8229 5.85156 15.8594C5.95573 15.8594 6.05729 15.8594 6.15625 15.8594C6.26042 15.8646 6.36458 15.8672 6.46875 15.8672C6.07292 15.3984 5.76823 14.8776 5.55469 14.3047C5.34635 13.7318 5.24219 13.1224 5.24219 12.4766C5.24219 11.8568 5.29688 11.2839 5.40625 10.7578C5.52083 10.2318 5.69531 9.72396 5.92969 9.23438C5.85677 9.23438 5.78385 9.23438 5.71094 9.23438C5.63802 9.23438 5.56771 9.23698 5.5 9.24219C5.15104 9.27865 4.83073 9.44531 4.53906 9.74219C4.2526 10.0339 4.02344 10.4245 3.85156 10.9141C3.67969 11.3984 3.59375 11.9375 3.59375 12.5312Z" fill="white"/>
</svg>
