<svg width="21" height="20" viewBox="0 0 21 20" fill="none" xmlns="http://www.w3.org/2000/svg">
<g id="icon">
<path id="Vector" d="M5.78113 10.3104C5.60216 10.3104 5.50671 10.213 5.48285 10.0183C5.42319 9.55569 5.36353 9.17833 5.30388 8.88618C5.24422 8.59403 5.17263 8.35058 5.07718 8.18016C4.98173 8.00974 4.83855 7.86366 4.65958 7.76628C4.48061 7.6689 4.24198 7.58369 3.9437 7.51065C3.64541 7.43761 3.26361 7.36458 2.79828 7.29154C2.59545 7.26719 2.5 7.15764 2.5 6.98722C2.5 6.8168 2.58352 6.71942 2.76249 6.6829C3.22782 6.59769 3.60962 6.51248 3.91984 6.43944C4.23005 6.3664 4.46868 6.28119 4.64765 6.18381C4.82662 6.08643 4.9698 5.94035 5.06525 5.76993C5.1607 5.59951 5.24422 5.35606 5.29195 5.06391C5.33967 4.77176 5.41126 4.3944 5.47092 3.93183C5.49478 3.73707 5.59023 3.63968 5.7692 3.63968C5.85272 3.63968 5.91238 3.66403 5.97204 3.71272C6.03169 3.76141 6.05556 3.83445 6.06749 3.91966C6.12714 4.38223 6.1868 4.77176 6.24646 5.07608C6.30611 5.3804 6.38963 5.62386 6.48509 5.80645C6.58054 5.98904 6.72371 6.13512 6.90268 6.2325C7.08166 6.32988 7.32028 6.41509 7.61857 6.47596C7.91685 6.53682 8.31059 6.60986 8.77591 6.6829C8.85943 6.6829 8.91909 6.73159 8.96682 6.78028C9.01454 6.82897 9.0384 6.90201 9.0384 6.98722C9.0384 7.15764 8.95488 7.25502 8.77591 7.29154C8.31059 7.37675 7.91685 7.46196 7.61857 7.535C7.32028 7.60803 7.06972 7.69324 6.89075 7.79063C6.71178 7.88801 6.56861 8.03408 6.47315 8.2045C6.3777 8.37492 6.29418 8.61838 6.23453 8.91053C6.17487 9.20268 6.11521 9.58004 6.05556 10.0426C6.05556 10.1278 6.00783 10.1887 5.9601 10.2374C5.91238 10.2861 5.84079 10.3104 5.75727 10.3104H5.78113ZM11.6991 20C11.5679 20 11.4605 19.9635 11.377 19.8783C11.2934 19.7931 11.2338 19.6835 11.2099 19.5496C11.1025 18.7462 10.9952 18.0523 10.8758 17.4802C10.7565 16.9081 10.6133 16.409 10.4344 16.0073C10.2554 15.6056 10.0406 15.2648 9.77815 14.997C9.51566 14.7292 9.18158 14.51 8.79978 14.3396C8.41797 14.1692 7.92878 14.0231 7.37994 13.9136C6.8311 13.804 6.16294 13.6945 5.3874 13.5849C5.25615 13.5606 5.13684 13.5119 5.05332 13.4145C4.9698 13.3171 4.92207 13.2075 4.92207 13.0858C4.92207 12.9641 4.9698 12.8424 5.05332 12.745C5.13684 12.6476 5.25615 12.5989 5.3874 12.5867C6.30611 12.4893 7.08166 12.3676 7.71402 12.2337C8.34638 12.0998 8.85943 11.9051 9.2651 11.6616C9.67077 11.4181 9.99292 11.0895 10.2315 10.6634C10.4702 10.2374 10.673 9.71394 10.8162 9.0566C10.9594 8.39927 11.0906 7.59586 11.2099 6.62203C11.2338 6.48813 11.2934 6.37857 11.377 6.29337C11.4605 6.20816 11.5679 6.17164 11.6991 6.17164C11.8304 6.17164 11.9497 6.20816 12.0332 6.29337C12.1167 6.37857 12.1764 6.48813 12.2002 6.62203C12.3315 7.58369 12.4627 8.39927 12.6178 9.04443C12.7729 9.68959 12.9638 10.2252 13.2025 10.6512C13.4411 11.0773 13.7632 11.3938 14.1689 11.6372C14.5746 11.8807 15.0876 12.0755 15.7081 12.2094C16.3285 12.3433 17.104 12.4772 18.0347 12.5746C18.1659 12.5989 18.2852 12.6476 18.3688 12.745C18.4523 12.8424 18.5 12.9519 18.5 13.0858C18.5 13.2197 18.4523 13.3293 18.3688 13.4267C18.2852 13.524 18.1659 13.5727 18.0347 13.5849C17.116 13.6823 16.3404 13.804 15.7081 13.9379C15.0757 14.0718 14.5626 14.2666 14.157 14.51C13.7513 14.7535 13.4292 15.0943 13.1905 15.5082C12.9519 15.9221 12.7491 16.4577 12.6059 17.115C12.4627 17.7724 12.3195 18.5758 12.2122 19.5374C12.1883 19.6713 12.1406 19.7809 12.057 19.8661C11.9735 19.9513 11.8542 19.9878 11.723 19.9878L11.6991 20ZM9.93326 4.24833C9.81394 4.24833 9.75429 4.18746 9.73042 4.05356C9.67077 3.70055 9.62304 3.43274 9.57532 3.22581C9.52759 3.01887 9.456 2.87279 9.36055 2.76324C9.2651 2.65368 9.10999 2.56847 8.90716 2.50761C8.70432 2.44674 8.41797 2.38588 8.03617 2.32502C7.90492 2.30067 7.84526 2.23981 7.84526 2.13025C7.84526 2.02069 7.90492 1.93548 8.02424 1.91114C8.39411 1.85027 8.69239 1.77724 8.89523 1.71637C9.09806 1.65551 9.25317 1.5703 9.36055 1.46074C9.46793 1.35119 9.53952 1.19294 9.57532 0.998174C9.61111 0.803408 9.67077 0.523433 9.73042 0.182593C9.75429 0.0608643 9.81394 0 9.93326 0C10.0526 0 10.1122 0.0608643 10.1361 0.182593C10.1957 0.535606 10.2554 0.815581 10.2912 1.01035C10.327 1.20511 10.4105 1.36336 10.506 1.47292C10.6014 1.58247 10.7565 1.66768 10.9594 1.72855C11.1622 1.78941 11.4485 1.85027 11.8304 1.91114C11.9616 1.93548 12.0213 1.99635 12.0213 2.13025C12.0213 2.23981 11.9616 2.31284 11.8423 2.32502C11.4724 2.38588 11.1741 2.45892 10.9713 2.51978C10.7685 2.58064 10.6133 2.66585 10.5179 2.77541C10.4224 2.88497 10.3509 3.04321 10.3031 3.23798C10.2554 3.43274 10.2077 3.71272 10.148 4.06573C10.1242 4.18746 10.0645 4.24833 9.94519 4.24833H9.93326Z" fill="black"/>
</g>
</svg>
