<svg width="20" height="20" viewBox="0 0 20 20" fill="none" xmlns="http://www.w3.org/2000/svg">
<g id="icon">
<path id="Vector" d="M5.18543 10.3104C5.00283 10.3104 4.90545 10.213 4.8811 10.0183C4.82024 9.55569 4.75938 9.17833 4.69851 8.88618C4.63765 8.59403 4.56461 8.35058 4.46723 8.18016C4.36984 8.00974 4.22377 7.86366 4.04118 7.76628C3.85858 7.6689 3.61513 7.58369 3.31081 7.51065C3.00648 7.43761 2.61695 7.36458 2.14221 7.29154C1.93527 7.26719 1.83789 7.15764 1.83789 6.98722C1.83789 6.8168 1.9231 6.71942 2.10569 6.6829C2.58043 6.59769 2.96997 6.51248 3.28646 6.43944C3.60295 6.3664 3.84641 6.28119 4.029 6.18381C4.2116 6.08643 4.35767 5.94035 4.45505 5.76993C4.55244 5.59951 4.63765 5.35606 4.68634 5.06391C4.73503 4.77176 4.80807 4.3944 4.86893 3.93183C4.89328 3.73707 4.99066 3.63968 5.17325 3.63968C5.25846 3.63968 5.31933 3.66403 5.38019 3.71272C5.44106 3.76141 5.4654 3.83445 5.47757 3.91966C5.53844 4.38223 5.5993 4.77176 5.66017 5.07608C5.72103 5.3804 5.80624 5.62386 5.90362 5.80645C6.00101 5.98904 6.14708 6.13512 6.32967 6.2325C6.51227 6.32988 6.75572 6.41509 7.06004 6.47596C7.36437 6.53682 7.76607 6.60986 8.24081 6.6829C8.32602 6.6829 8.38689 6.73159 8.43558 6.78028C8.48427 6.82897 8.50861 6.90201 8.50861 6.98722C8.50861 7.15764 8.4234 7.25502 8.24081 7.29154C7.76607 7.37675 7.36437 7.46196 7.06004 7.535C6.75572 7.60803 6.50009 7.69324 6.3175 7.79063C6.13491 7.88801 5.98883 8.03408 5.89145 8.2045C5.79407 8.37492 5.70886 8.61838 5.64799 8.91053C5.58713 9.20268 5.52627 9.58004 5.4654 10.0426C5.4654 10.1278 5.41671 10.1887 5.36802 10.2374C5.31933 10.2861 5.24629 10.3104 5.16108 10.3104H5.18543ZM11.2232 20C11.0893 20 10.9797 19.9635 10.8945 19.8783C10.8093 19.7931 10.7484 19.6835 10.7241 19.5496C10.6145 18.7462 10.505 18.0523 10.3832 17.4802C10.2615 16.9081 10.1154 16.409 9.93284 16.0073C9.75025 15.6056 9.53113 15.2648 9.26333 14.997C8.99553 14.7292 8.65469 14.51 8.26516 14.3396C7.87563 14.1692 7.37654 14.0231 6.81659 13.9136C6.25664 13.804 5.57496 13.6945 4.78372 13.5849C4.64982 13.5606 4.52809 13.5119 4.44288 13.4145C4.35767 13.3171 4.30898 13.2075 4.30898 13.0858C4.30898 12.9641 4.35767 12.8424 4.44288 12.745C4.52809 12.6476 4.64982 12.5989 4.78372 12.5867C5.72103 12.4893 6.51227 12.3676 7.15743 12.2337C7.80259 12.0998 8.32602 11.9051 8.7399 11.6616C9.15378 11.4181 9.48244 11.0895 9.7259 10.6634C9.96936 10.2374 10.1763 9.71394 10.3224 9.0566C10.4684 8.39927 10.6023 7.59586 10.7241 6.62203C10.7484 6.48813 10.8093 6.37857 10.8945 6.29337C10.9797 6.20816 11.0893 6.17164 11.2232 6.17164C11.3571 6.17164 11.4788 6.20816 11.564 6.29337C11.6492 6.37857 11.7101 6.48813 11.7344 6.62203C11.8683 7.58369 12.0022 8.39927 12.1605 9.04443C12.3187 9.68959 12.5135 10.2252 12.7569 10.6512C13.0004 11.0773 13.3291 11.3938 13.7429 11.6372C14.1568 11.8807 14.6803 12.0755 15.3132 12.2094C15.9462 12.3433 16.7375 12.4772 17.6869 12.5746C17.8208 12.5989 17.9426 12.6476 18.0278 12.745C18.113 12.8424 18.1617 12.9519 18.1617 13.0858C18.1617 13.2197 18.113 13.3293 18.0278 13.4267C17.9426 13.524 17.8208 13.5727 17.6869 13.5849C16.7496 13.6823 15.9584 13.804 15.3132 13.9379C14.6681 14.0718 14.1446 14.2666 13.7308 14.51C13.3169 14.7535 12.9882 15.0943 12.7448 15.5082C12.5013 15.9221 12.2944 16.4577 12.1483 17.115C12.0022 17.7724 11.8561 18.5758 11.7466 19.5374C11.7222 19.6713 11.6736 19.7809 11.5883 19.8661C11.5031 19.9513 11.3814 19.9878 11.2475 19.9878L11.2232 20ZM9.42158 4.24833C9.29985 4.24833 9.23899 4.18746 9.21464 4.05356C9.15378 3.70055 9.10508 3.43274 9.05639 3.22581C9.0077 3.01887 8.93466 2.87279 8.83728 2.76324C8.7399 2.65368 8.58165 2.56847 8.37471 2.50761C8.16777 2.44674 7.87563 2.38588 7.48609 2.32502C7.35219 2.30067 7.29133 2.23981 7.29133 2.13025C7.29133 2.02069 7.35219 1.93548 7.47392 1.91114C7.85128 1.85027 8.1556 1.77724 8.36254 1.71637C8.56948 1.65551 8.72773 1.5703 8.83728 1.46074C8.94684 1.35119 9.01987 1.19294 9.05639 0.998174C9.09291 0.803408 9.15378 0.523433 9.21464 0.182593C9.23899 0.0608643 9.29985 0 9.42158 0C9.54331 0 9.60417 0.0608643 9.62852 0.182593C9.68938 0.535606 9.75025 0.815581 9.78676 1.01035C9.82328 1.20511 9.90849 1.36336 10.0059 1.47292C10.1033 1.58247 10.2615 1.66768 10.4684 1.72855C10.6754 1.78941 10.9675 1.85027 11.3571 1.91114C11.491 1.93548 11.5518 1.99635 11.5518 2.13025C11.5518 2.23981 11.491 2.31284 11.3692 2.32502C10.9919 2.38588 10.6876 2.45892 10.4806 2.51978C10.2737 2.58064 10.1154 2.66585 10.018 2.77541C9.92067 2.88497 9.84763 3.04321 9.79894 3.23798C9.75025 3.43274 9.70155 3.71272 9.64069 4.06573C9.61634 4.18746 9.55548 4.24833 9.43375 4.24833H9.42158Z" fill="white"/>
</g>
</svg>
