<svg width="20" height="20" viewBox="0 0 20 20" fill="none" xmlns="http://www.w3.org/2000/svg">
<path d="M5.7998 13.583C5.16699 13.583 4.68945 13.416 4.36719 13.082C4.05078 12.748 3.89258 12.25 3.89258 11.5879V8.44141C3.89258 7.80859 4.04199 7.32812 4.34082 7L14.0879 16.7383C14 16.9844 13.8652 17.1689 13.6836 17.292C13.502 17.4209 13.2881 17.4854 13.042 17.4854C12.8193 17.4854 12.6113 17.4385 12.418 17.3447C12.2305 17.2568 12.0283 17.1104 11.8115 16.9053L8.32227 13.6533C8.26953 13.6064 8.20508 13.583 8.12891 13.583H5.7998ZM14.1758 11.9834L8.33105 6.14746H8.51562C8.55664 6.14746 8.59473 6.12988 8.62988 6.09473L11.8115 3.15039C12.0459 2.92773 12.2539 2.7666 12.4355 2.66699C12.6172 2.56738 12.8164 2.51758 13.0332 2.51758C13.3613 2.51758 13.6338 2.63184 13.8506 2.86035C14.0674 3.08887 14.1758 3.36426 14.1758 3.68652V11.9834ZM17.0938 18.2676L2.41602 3.59863C2.28711 3.47559 2.22266 3.32031 2.22266 3.13281C2.22266 2.93945 2.28711 2.77832 2.41602 2.64941C2.54492 2.52051 2.70312 2.45605 2.89062 2.45605C3.08398 2.45605 3.24512 2.52051 3.37402 2.64941L18.043 17.3096C18.1719 17.4443 18.2363 17.6025 18.2363 17.7842C18.2363 17.9717 18.1719 18.1328 18.043 18.2676C17.9199 18.3965 17.7617 18.4609 17.5684 18.4609C17.3809 18.4609 17.2227 18.3965 17.0938 18.2676Z" fill="white"/>
</svg>
