<svg width="20" height="20" viewBox="0 0 20 20" fill="none" xmlns="http://www.w3.org/2000/svg">
<path d="M10.0703 17.3887C9.86523 17.3887 9.67188 17.3447 9.49023 17.2568C9.31445 17.1748 9.12402 17.04 8.91895 16.8525L5.41211 13.5303C5.36523 13.4775 5.29785 13.4512 5.20996 13.4512H2.8457C2.25977 13.4512 1.81152 13.293 1.50098 12.9766C1.19043 12.6602 1.03516 12.1885 1.03516 11.5615V8.46777C1.03516 7.84668 1.19043 7.375 1.50098 7.05273C1.81152 6.73047 2.25977 6.56934 2.8457 6.56934H5.20996C5.29785 6.56934 5.36523 6.5459 5.41211 6.49902L8.91895 3.21191C9.14746 3.00684 9.34375 2.85742 9.50781 2.76367C9.67188 2.66406 9.85645 2.61426 10.0615 2.61426C10.3604 2.61426 10.6035 2.7168 10.791 2.92188C10.9844 3.12695 11.0811 3.37305 11.0811 3.66016V16.3867C11.0811 16.6797 10.9844 16.9199 10.791 17.1074C10.6035 17.2949 10.3633 17.3887 10.0703 17.3887ZM14.0518 13.6182C13.8643 13.4893 13.7559 13.3223 13.7266 13.1172C13.6973 12.9121 13.7559 12.707 13.9023 12.502C14.1367 12.168 14.3184 11.7842 14.4473 11.3506C14.5762 10.917 14.6406 10.4658 14.6406 9.99707C14.6406 9.52832 14.5762 9.07715 14.4473 8.64355C14.3184 8.2041 14.1367 7.81738 13.9023 7.4834C13.7559 7.28418 13.6973 7.08203 13.7266 6.87695C13.7559 6.67188 13.8643 6.50488 14.0518 6.37598C14.21 6.26465 14.3828 6.22949 14.5703 6.27051C14.7578 6.30566 14.9102 6.40527 15.0273 6.56934C15.3613 7.01465 15.6191 7.53613 15.8008 8.13379C15.9824 8.72559 16.0732 9.34668 16.0732 9.99707C16.0732 10.6475 15.9824 11.2715 15.8008 11.8691C15.6191 12.4668 15.3613 12.9824 15.0273 13.416C14.9102 13.5859 14.7578 13.6914 14.5703 13.7324C14.3828 13.7676 14.21 13.7295 14.0518 13.6182ZM17.251 15.8154C17.0752 15.6982 16.9756 15.543 16.9521 15.3496C16.9287 15.1504 16.9814 14.9512 17.1104 14.752C17.5557 14.1074 17.9014 13.375 18.1475 12.5547C18.3994 11.7285 18.5254 10.876 18.5254 9.99707C18.5254 9.11816 18.4023 8.26562 18.1562 7.43945C17.9102 6.61328 17.5615 5.88086 17.1104 5.24219C16.9814 5.04297 16.9287 4.84668 16.9521 4.65332C16.9756 4.4541 17.0752 4.2959 17.251 4.17871C17.4209 4.06152 17.5996 4.02344 17.7871 4.06445C17.9805 4.10547 18.1357 4.21387 18.2529 4.38965C18.7979 5.12793 19.2197 5.98926 19.5186 6.97363C19.8174 7.95215 19.9668 8.95996 19.9668 9.99707C19.9668 11.0342 19.8145 12.042 19.5098 13.0205C19.2109 13.9932 18.792 14.8545 18.2529 15.6045C18.1357 15.7803 17.9805 15.8887 17.7871 15.9297C17.5996 15.9648 17.4209 15.9268 17.251 15.8154Z" fill="white"/>
</svg>
