<svg width="37" height="35" viewBox="0 0 37 35" fill="none" xmlns="http://www.w3.org/2000/svg">
<g id="color_UV" clip-path="url(#clip0_1635_7038)">
<path id="Vector" d="M2.82708 12.2027C2.40478 11.509 2.14491 10.7523 2.14491 10.0271C2.14491 8.00905 4.25641 5.92796 7.18003 5.92796C8.21953 5.92796 9.32401 6.21175 10.461 6.68472C10.461 6.49553 10.461 6.30634 10.461 6.11715C10.461 1.00905 13.547 -0.0314941 15.5935 -0.0314941C16.698 -0.0314941 17.705 0.567605 18.5172 1.51355C19.3293 0.567605 20.3363 -0.0314941 21.4408 -0.0314941C23.3899 -0.0314941 26.5734 1.35589 26.5734 6.36941C26.5734 7.15769 26.4434 8.00905 26.281 8.79733C27.8727 8.10364 29.432 7.69373 30.7314 7.69373C33.7849 7.69373 35.9939 9.74328 35.9939 12.1712C35.9939 13.0541 35.6041 13.937 34.9219 14.6937C36.1888 15.3559 37.0659 16.3964 37.0659 18.0045C37.0659 21.2838 33.9798 22.8289 31.2511 23.2703C32.1932 24.6262 32.7779 26.0766 32.7779 27.4955C32.7779 29.7973 30.8288 31.8784 28.6199 31.8784C28.1001 31.8784 27.5479 31.7523 26.9632 31.5316C26.6058 33.6442 25.1765 34.937 22.8701 34.937C21.1809 34.937 19.1669 34.1172 17.5101 31.3108L17.4127 31.1532C17.4127 31.1532 17.2178 31.4054 17.1203 31.5316C15.3986 33.5181 13.7094 34.2433 12.2801 34.2433C10.4935 34.2433 7.92717 33.1397 7.92717 30.1442V30.0811C7.56984 30.1442 7.24499 30.1757 6.92015 30.1757C4.45132 30.1757 2.98951 28.0316 2.98951 25.8559C2.98951 24.1532 3.80162 22.5766 5.13349 21.1892L4.64622 21.0316C1.13788 19.8018 0.130859 17.8154 0.130859 16.0496C0.130859 14.1577 1.04043 12.7703 2.95702 12.1081L2.82708 12.2027ZM5.06852 19.7072C5.49082 19.8649 5.91312 19.9595 6.33542 20.0856C7.73226 18.982 9.42146 18.0991 11.1432 17.4685C11.2406 14.946 12.6699 12.7072 14.8139 11.5406C12.5725 9.23878 9.5514 7.40995 7.14754 7.40995C4.97107 7.40995 3.6392 8.70274 3.6392 10.0271C3.6392 10.6892 3.93156 11.2883 4.61374 12.1081C5.00355 12.6126 4.74368 13.2433 4.09398 13.3694C2.11242 13.7163 1.49521 14.5045 1.49521 16.1126C1.49521 17.437 2.14491 18.6667 5.03604 19.6757L5.06852 19.7072ZM6.82269 28.7568C7.27748 28.7568 7.76475 28.6622 8.2845 28.473C8.86923 28.2208 9.51892 28.6622 9.45395 29.2928C9.38898 29.6397 9.3565 29.9235 9.3565 30.2072C9.3565 32.1622 10.8183 32.8244 12.1827 32.8244C13.2547 32.8244 14.3916 32.3514 15.8534 30.6487C16.1133 30.3649 16.3732 30.0181 16.6006 29.7027C15.9834 28.0631 15.756 26.2027 15.756 24.4685V24.3424C13.4496 23.428 11.7279 21.4415 11.2731 19.0136C7.63481 20.3694 4.41883 23.0181 4.41883 25.9505C4.41883 27.5586 5.26343 28.7883 6.82269 28.7883V28.7568ZM12.0527 7.53607C13.547 8.41896 15.0088 9.61715 16.2108 10.9415C16.9254 10.7208 17.6726 10.5946 18.4522 10.5946C19.6866 10.5946 20.8236 10.8784 21.8306 11.3829C22.6102 10.7838 23.4548 10.2478 24.3319 9.74328C24.7217 8.63968 24.9491 7.50454 24.9491 6.40094C24.9491 2.39643 22.8376 1.48202 21.3433 1.48202C20.4987 1.48202 19.8165 1.98652 19.1669 3.0586C18.8095 3.62616 18.0624 3.65769 17.705 3.12166C17.0229 1.98652 16.3082 1.48202 15.4961 1.48202C13.8069 1.48202 11.8903 2.14418 11.8903 6.14869C11.8903 6.62166 11.9228 7.0631 11.9878 7.50454L12.0527 7.53607ZM18.4522 12.0766C15.1388 12.0766 12.6374 14.5045 12.6374 17.7208C12.6374 20.937 15.1388 23.3649 18.4522 23.3649C21.7656 23.3649 24.2669 20.937 24.2669 17.7208C24.2669 14.5045 21.7656 12.0766 18.4522 12.0766ZM16.4381 17.5C16.9254 17.5 17.3477 17.1217 17.3477 16.6172C17.3477 16.1126 16.9254 15.7658 16.4381 15.7658C15.9509 15.7658 15.5286 16.1442 15.5286 16.6172C15.5286 17.0901 15.9184 17.5 16.4381 17.5ZM18.4847 21.0316C19.6216 21.0316 20.4987 20.1487 20.4987 19.0766C20.4987 18.6982 20.1414 18.3514 19.7516 18.3514C19.2968 18.3514 19.0044 18.6982 19.0044 19.0766C19.0044 19.3289 18.777 19.5496 18.5172 19.5496C18.2573 19.5496 18.0299 19.3289 18.0299 19.0766C18.0299 18.6982 17.7375 18.3514 17.2827 18.3514C16.8929 18.3514 16.5356 18.6982 16.5356 19.0766C16.5356 20.1487 17.4452 21.0316 18.5496 21.0316H18.4847ZM18.7121 30.6802C20.0764 32.982 21.4408 33.5496 22.7402 33.5496C24.5918 33.5496 25.3714 32.6667 25.3714 30.6487C25.3714 30.0181 26.0536 29.6081 26.6383 29.9235C27.353 30.3018 27.9377 30.491 28.4899 30.491C29.8868 30.491 31.1212 29.1982 31.1212 27.5586C31.1212 26.2343 30.439 24.8154 29.3995 23.491C27.5804 23.491 25.6963 23.0811 23.9421 22.4505C22.5777 23.9009 20.6287 24.8469 18.4522 24.8469C18.0624 24.8469 17.6401 24.8154 17.2503 24.7523C17.2827 26.8649 17.705 29.009 18.7446 30.6802H18.7121ZM20.4338 17.5C20.9535 17.5 21.3433 17.1217 21.3433 16.6172C21.3433 16.1126 20.9535 15.7658 20.4338 15.7658C19.914 15.7658 19.5242 16.1442 19.5242 16.6172C19.5242 17.0901 19.914 17.5 20.4338 17.5ZM25.7612 17.7208C25.7612 18.982 25.4039 20.1802 24.8192 21.2208C26.281 21.6937 27.9052 22.009 29.432 22.009C32.0308 22.009 35.4092 20.9685 35.4092 18.0991C35.4092 16.8379 34.727 16.2388 33.2977 15.7658C32.7129 15.5451 32.5505 14.7568 33.0703 14.3784C33.9474 13.6217 34.3372 12.9595 34.3372 12.2658C34.3372 10.5946 32.9403 9.27031 30.6014 9.27031C28.4575 9.27031 25.4689 10.5316 23.0975 12.2658C24.7217 13.5586 25.7612 15.5451 25.7612 17.7523V17.7208Z" fill="#1D1D1B"/>
</g>
<defs>
<clipPath id="clip0_1635_7038">
<rect width="37" height="35" fill="white"/>
</clipPath>
</defs>
</svg>
