<svg width="37" height="36" viewBox="0 0 37 36" fill="none" xmlns="http://www.w3.org/2000/svg">
<g id="color_UV" clip-path="url(#clip0_1635_7044)">
<path id="Vector" d="M-0.000920847 16.6054C-0.000920847 18.4216 1.0061 20.4324 4.51444 21.7297L5.00171 21.8918C3.70233 23.2864 2.85773 24.9405 2.85773 26.6918C2.85773 28.9297 4.31954 31.1351 6.78837 31.1351C7.08073 31.1351 7.47055 31.1027 7.79539 31.0054V31.1027C7.79539 34.1837 10.3617 35.3189 12.1483 35.3189C13.6101 35.3189 15.2669 34.6054 16.9885 32.5297L17.2809 32.1405L17.3784 32.3027C19.0676 35.1567 21.0816 36.0324 22.7383 36.0324C25.0447 36.0324 26.4741 34.7027 26.8314 32.5297C27.4161 32.7243 27.9683 32.8864 28.4881 32.8864C30.6646 32.8864 32.6461 30.7459 32.6461 28.3783C32.6461 26.9189 32.0614 25.4594 31.1194 24.0324C33.8481 23.5783 36.9341 21.9891 36.9341 18.6162C36.9341 16.9297 36.0245 15.8918 34.7901 15.2108C35.4723 14.4 35.8621 13.5243 35.8621 12.6162C35.8621 10.1189 33.6856 8.01077 30.5996 8.01077C29.3002 8.01077 27.741 8.43239 26.1492 9.1459C26.3441 8.30266 26.4416 7.45941 26.4416 6.6486C26.4416 1.49185 23.2581 0.0648193 21.309 0.0648193C20.172 0.0648193 19.165 0.681035 18.3854 1.65401C17.5733 0.681035 16.5662 0.0648193 15.4618 0.0648193C13.4152 0.0648193 10.3292 1.13509 10.3292 6.38914V6.97293C9.19223 6.48644 8.08775 6.19455 7.04824 6.19455C4.12463 6.19455 2.01313 8.33509 2.01313 10.4108C2.01313 11.1567 2.273 11.9027 2.6953 12.6486C0.77871 13.3297 -0.130859 14.7243 -0.130859 16.7027L-0.000920847 16.6054Z" fill="#F6EA54"/>
<path id="Vector_2" d="M24.2994 18.1946C24.2994 21.5027 21.7981 24 18.4847 24C15.1712 24 12.6699 21.5027 12.6699 18.1946C12.6699 14.8865 15.1712 12.3892 18.4847 12.3892C21.7981 12.3892 24.2994 14.8865 24.2994 18.1946Z" fill="#F3921A"/>
<path id="Vector_3" d="M23.1606 12.5514C25.532 10.8 28.5531 9.47031 30.6646 9.47031C33.0035 9.47031 34.4003 10.8325 34.4003 12.5514C34.4003 13.2973 34.0105 13.946 33.1334 14.7244C32.6137 15.1136 32.7761 15.9244 33.3608 16.1514C34.7901 16.6703 35.4723 17.2541 35.4723 18.5514C35.4723 21.5027 32.0939 22.573 29.4951 22.573C27.9683 22.573 26.3441 22.2487 24.8823 21.7622C25.4995 20.6919 25.8244 19.4919 25.8244 18.1622C25.8244 15.8919 24.7849 13.8487 23.1606 12.519V12.5514ZM19.5873 17.0595C19.5873 16.573 19.9771 16.1838 20.4969 16.1838C21.0166 16.1838 21.4065 16.573 21.4065 17.0595C21.4065 17.546 21.0166 17.9676 20.4969 17.9676C19.9771 17.9676 19.5873 17.5784 19.5873 17.0595ZM17.2809 25.4271C17.6707 25.4919 18.093 25.5244 18.4828 25.5244C20.6593 25.5244 22.6409 24.5838 23.9727 23.0595C25.7269 23.7081 27.611 24.1298 29.4302 24.1298C30.5022 25.4919 31.1518 26.9514 31.1518 28.3135C31.1518 30 29.9174 31.3298 28.5206 31.3298C27.9683 31.3298 27.3836 31.1352 26.669 30.746C26.0842 30.4217 25.4021 30.8433 25.4021 31.4919C25.4021 33.5676 24.6224 34.4757 22.7708 34.4757C21.4714 34.4757 20.1071 33.8919 18.7427 31.5244C17.7032 29.8054 17.2809 27.6 17.2484 25.4271H17.2809ZM16.5338 19.6217C16.5338 19.2325 16.8911 18.8757 17.2809 18.8757C17.7357 18.8757 18.0281 19.2325 18.0281 19.6217C18.0281 19.8811 18.2554 20.1081 18.5153 20.1081C18.7752 20.1081 19.0026 19.8811 19.0026 19.6217C19.0026 19.2325 19.295 18.8757 19.7497 18.8757C20.1396 18.8757 20.4969 19.2325 20.4969 19.6217C20.4969 20.7244 19.5873 21.6325 18.4828 21.6325C17.3784 21.6325 16.4688 20.7244 16.4688 19.6217H16.5338ZM15.5917 17.0595C15.5917 16.573 15.9815 16.1838 16.5013 16.1838C17.021 16.1838 17.4108 16.573 17.4108 17.0595C17.4108 17.546 16.9885 17.9676 16.5013 17.9676C16.014 17.9676 15.5917 17.5784 15.5917 17.0595ZM11.9859 6.29193C11.9859 2.17301 13.9025 1.49193 15.5917 1.49193C16.4038 1.49193 17.1185 2.01085 17.8007 3.17842C18.158 3.72977 18.9051 3.69734 19.2625 3.11355C19.9446 1.97842 20.6268 1.49193 21.4389 1.49193C22.9332 1.49193 25.0447 2.43247 25.0447 6.55139C25.0447 7.68652 24.7849 8.85409 24.4275 9.98923C23.5504 10.4757 22.7058 11.0595 21.9262 11.6757C20.8867 11.1568 19.7497 10.8649 18.5478 10.8649C17.7682 10.8649 17.021 10.9946 16.3064 11.2217C15.1044 9.8595 13.6426 8.62707 12.1483 7.71896C12.0834 7.2649 12.0509 6.77842 12.0509 6.32436L11.9859 6.29193ZM4.41699 26.6271C4.41699 23.6108 7.60048 20.8865 11.2712 19.4919C11.726 21.9892 13.4477 24.0649 15.7541 24.973V25.1027C15.7541 26.8865 16.014 28.8 16.5987 30.4865C16.3713 30.8433 16.1115 31.1676 15.8516 31.4595C14.3898 33.2108 13.2528 33.6973 12.1808 33.6973C10.8165 33.6973 9.35465 33.0163 9.35465 31.0054C9.35465 30.7136 9.38714 30.4217 9.45211 30.0649C9.51708 29.3838 8.86738 28.9622 8.28266 29.2217C7.76291 29.4163 7.27564 29.5136 6.82085 29.5136C5.2291 29.5136 4.41699 28.2487 4.41699 26.5946V26.6271ZM1.52586 16.573C1.52586 14.919 2.14306 14.1081 4.12463 13.7514C4.74184 13.6217 5.0342 12.9406 4.64438 12.4541C3.9622 11.6108 3.66984 10.9946 3.66984 10.3136C3.66984 8.95139 5.00171 7.62166 7.17818 7.62166C9.58205 7.62166 12.6031 9.50274 14.8446 11.8703C12.7006 13.1027 11.2712 15.373 11.1738 17.9676C9.45211 18.6163 7.76291 19.5244 6.36607 20.6595C5.94377 20.5298 5.52147 20.4325 5.09917 20.2703C2.20803 19.2325 1.55834 17.9676 1.55834 16.6054L1.52586 16.573ZM-0.000920847 16.573C-0.000920847 18.3892 1.0061 20.4 4.51444 21.6973L5.00171 21.8595C3.70233 23.2541 2.85773 24.9081 2.85773 26.6595C2.85773 28.8973 4.31954 31.1027 6.78837 31.1027C7.11321 31.1027 7.47055 31.0703 7.79539 31.0054V31.0703C7.79539 34.1514 10.3617 35.2865 12.1483 35.2865C13.6101 35.2865 15.2669 34.573 16.9885 32.4973C17.086 32.3676 17.1835 32.2379 17.2809 32.1081L17.3784 32.2703C19.0676 35.1244 21.0816 36 22.7383 36C25.0447 36 26.4741 34.6703 26.8314 32.4973C27.4161 32.6919 27.9683 32.8541 28.4881 32.8541C30.6646 32.8541 32.6461 30.7136 32.6461 28.346C32.6461 26.8865 32.0614 25.4271 31.1194 24C33.8481 23.546 36.9341 21.9568 36.9341 18.5838C36.9341 16.8973 36.0245 15.8595 34.7901 15.1784C35.4723 14.3676 35.8621 13.4919 35.8621 12.5838C35.8621 10.0865 33.6856 7.97842 30.5996 7.97842C29.3002 7.97842 27.741 8.40004 26.1492 9.11355C26.3441 8.27031 26.4416 7.42707 26.4416 6.61625C26.4416 1.4595 23.2581 0.0324707 21.309 0.0324707C20.172 0.0324707 19.165 0.648687 18.3854 1.62166C17.5733 0.648687 16.5662 0.0324707 15.4618 0.0324707C13.4152 0.0324707 10.3292 1.10274 10.3292 6.3568C10.3292 6.55139 10.3292 6.74598 10.3292 6.94058C9.19223 6.45409 8.05527 6.1622 7.04824 6.1622C4.12463 6.1622 2.01313 8.30274 2.01313 10.3784C2.01313 11.1244 2.273 11.8703 2.6953 12.6163C0.77871 13.2973 -0.130859 14.6919 -0.130859 16.6703L-0.000920847 16.573ZM24.2976 18.1946C24.2976 21.5027 21.7963 24 18.4828 24C15.1694 24 12.6681 21.5027 12.6681 18.1946C12.6681 14.8865 15.1694 12.3892 18.4828 12.3892C21.7963 12.3892 24.2976 14.8865 24.2976 18.1946Z" fill="black"/>
</g>
<defs>
<clipPath id="clip0_1635_7044">
<rect width="37" height="36" fill="white"/>
</clipPath>
</defs>
</svg>
