<svg width="169" height="129" viewBox="0 0 169 129" fill="none" xmlns="http://www.w3.org/2000/svg">
<g id="Group 4068">
<path id="Vector" d="M4.74163 23.6979C3.21435 23.6979 2.01874 24.0876 1.20392 24.9039C-4.92973 31.0488 12.9758 58.9555 41.2037 87.2354C64.7679 110.843 88.0701 127.243 98.6955 128.445C98.6013 128.404 98.5072 128.359 98.4171 128.314C94.8466 126.41 94.8917 118.457 97.852 106.925C90.7725 95.2632 78.5871 80.1757 63.4167 64.9815C38.9353 40.4509 14.7324 23.6979 4.74163 23.6979Z" fill="#00B1EB"/>
<path id="Vector_2" d="M164.429 0C155.576 0 135.873 24.1819 118.471 56.9865C108.472 75.8356 101.25 93.7208 97.8594 106.926C103.956 116.967 106.261 124.47 103.424 127.313C102.609 128.129 101.413 128.519 99.8862 128.519C99.5095 128.519 99.1164 128.494 98.6988 128.449C99.1696 128.65 99.6896 128.749 100.255 128.749C109.107 128.749 128.81 104.567 146.212 71.7623C164.945 36.4431 173.924 4.50821 166.263 0.430721C165.719 0.139472 165.104 0 164.429 0Z" fill="#00B1EB"/>
<path id="Vector_3" d="M97.8571 106.925C94.8926 118.457 94.8476 126.415 98.4221 128.314C98.5122 128.363 98.6064 128.408 98.7006 128.445C99.1141 128.494 99.5113 128.515 99.888 128.515C101.415 128.515 102.611 128.121 103.426 127.309C106.263 124.466 103.954 116.963 97.8612 106.921" fill="#00A2E5"/>
</g>
</svg>
