<svg width="179" height="294" viewBox="0 0 179 294" fill="none" xmlns="http://www.w3.org/2000/svg">
<path d="M114.648 40.3373L51.0371 278.789L135.619 293.737L178.26 51.5783L114.648 40.3373Z" fill="#BCD471"/>
<path d="M98.9719 60.9268C98.9977 60.6624 99.0805 60.4135 99.2255 60.1854C99.3238 60.035 99.448 59.895 99.6033 59.7706C99.448 59.895 99.3186 60.035 99.2255 60.1854C99.0805 60.4083 98.9977 60.6572 98.9719 60.9268ZM40.6809 51.542C40.8309 51.7339 40.9241 51.9464 40.95 52.1798C40.9189 51.9464 40.8309 51.7339 40.6809 51.542ZM134.103 63.4415C131.841 59.3143 128.446 57.7899 123.855 58.9358C123.229 59.0913 122.546 59.0291 121.889 59.0654C119.549 60.5898 116.894 61.0046 114.198 61.3002C111.103 62.949 107.31 61.6216 104.303 63.6334C103.009 64.0949 101.637 64.9089 100.509 64.2348C100.323 64.1208 100.142 63.9704 99.9707 63.763C100.142 63.9652 100.323 64.1208 100.509 64.2348C101.632 64.9089 103.009 64.0949 104.303 63.6334C103.185 62.1505 102.067 60.6728 100.949 59.1899C103.914 58.0284 106.885 56.867 109.851 55.7107C111.253 55.1663 112.656 54.6478 114.069 55.69C116.175 54.0464 118.706 53.3671 121.175 52.5531C130.806 49.5199 131.541 43.692 127.566 36.3449C124.554 30.771 121.485 25.2075 118.116 19.8463C115.161 15.1383 109.421 14.9206 106.057 19.2811C104.556 21.2255 103.355 23.2943 100.737 23.8439C100.7 24.9794 100.333 25.9853 99.4946 26.7734C95.3956 30.6258 91.2449 34.4368 87.3426 40.0832C88.5744 32.9435 91.4675 28.0852 95.644 23.9113C95.644 20.6396 97.973 18.4204 99.4325 15.8642C102.853 9.86002 100.949 5.50463 94.4899 3.77285C87.3168 1.84923 79.8641 1.93737 72.7065 0.169289C70.2947 -0.426983 68.4316 0.630763 66.7703 2.10848C65.3108 3.40472 64.0117 4.87725 62.6403 6.26682C62.8525 10.6378 63.1371 15.0087 63.2561 19.3796C63.3907 24.3935 63.4217 29.4125 63.3907 34.4264C63.3855 35.5153 62.8628 36.5989 61.5379 36.7441C60.1405 36.8945 59.6851 35.8264 59.4729 34.7583C59.0899 32.8295 58.8311 30.8747 58.5361 28.9252C57.6304 22.8691 57.3613 16.7094 55.5447 10.8089C54.0594 5.97647 50.3434 4.37431 45.965 6.86309C43.8948 8.04008 42.0782 9.67336 40.1478 11.0992C36.6078 12.774 33.6785 15.1954 31.3185 18.3219C28.7152 20.2922 25.7135 21.6092 23.2448 23.8491C17.4742 29.0859 17.7019 34.8568 24.1143 39.2899C24.4921 40.7728 25.6203 41.395 26.9556 41.7839C30.3507 44.3608 34.2115 46.383 36.7113 50.0176C38.6624 50.391 39.889 50.7902 40.4945 51.3554C39.889 50.7902 38.6573 50.391 36.7113 50.0176C37.793 51.5628 38.8746 53.1079 39.9563 54.6478C37.4307 57.4684 35.1328 55.3685 32.9384 54.1915C27.913 51.4954 22.986 48.6281 17.9969 45.8593C13.2251 43.2149 8.66039 44.8845 6.74547 50.0228C6.13477 51.6613 5.68968 53.3827 5.33775 55.0989C3.58845 63.6956 1.90126 72.3078 0.17266 80.9097C-0.945235 86.4732 3.52635 90.6627 8.92951 89.0605C15.0365 87.2509 21.1125 85.3325 27.2454 83.6215C29.1758 83.0822 31.9033 81.3401 33.0005 84.1503C34.165 87.1265 30.8113 87.4376 29.0568 88.3242C22.5875 91.5908 15.9681 94.5669 9.50398 97.849C4.89266 100.187 2.85871 106.539 5.49301 110.63C10.125 117.827 15.1504 124.775 19.7462 131.997C21.6766 135.036 23.9486 135.295 27.0332 134.491C30.1799 133.677 31.5514 131.328 32.9643 128.767C36.3438 122.618 39.6872 116.432 43.4238 110.5C44.4072 108.94 45.4112 105.471 47.9368 106.793C50.2088 107.986 48.444 110.739 47.647 112.647C44.6038 119.911 41.6176 127.206 38.2173 134.305C37.0166 136.814 36.9804 138.816 38.1552 141.112C38.9574 142.678 39.6613 144.286 40.4117 145.883C50.7833 146.256 61.1601 146.629 71.5317 146.997C72.4218 145.748 73.1412 144.327 74.2332 143.29C76.0188 141.595 76.526 139.77 76.0602 137.369C74.461 129.187 74.2746 120.782 72.2407 112.663C72.0803 112.025 71.9198 111.377 71.8888 110.728C71.8318 109.51 72.3597 108.655 73.607 108.343C74.699 108.069 75.2632 108.795 75.6151 109.577C76.2413 110.977 76.7951 112.414 77.2453 113.876C79.2638 120.373 81.1062 126.926 83.254 133.382C85.0499 138.769 89.9873 139.972 94.4796 136.42C96.1926 135.067 98.0403 133.879 99.831 132.619C105.043 126.548 111.44 121.762 117.277 116.37C117.345 114.923 117.412 113.477 117.479 112.025C116.558 108.763 114.721 106.446 111.631 104.709C107.558 102.417 103.537 99.9023 100.24 96.4595C98.3974 95.2825 96.5135 94.1677 94.7332 92.9129C93.8016 92.2544 93.2582 91.3004 94.0138 90.0975C94.6555 89.0709 95.5923 88.402 96.7412 88.8427C99.3911 89.8538 102.082 90.8493 104.111 92.9907C108.981 93.5611 112.925 96.4491 117.277 98.3105C122.727 100.639 127.038 98.7564 128.845 93.1048C129.367 91.4611 129.823 89.7916 130.304 88.1324C130.045 85.4569 130.413 82.9215 132.002 80.6608C131.453 78.4832 131.784 76.3832 132.498 74.2937C133.704 70.7731 134.196 67.1384 134.103 63.4208" fill="#D8B410"/>
</svg>
